<?xml version="1.0" encoding="UTF-8" standalone="no"?>
<!-- Created with Inkscape (http://www.inkscape.org/) -->

<svg
   xmlns:dc="http://purl.org/dc/elements/1.1/"
   xmlns:cc="http://creativecommons.org/ns#"
   xmlns:rdf="http://www.w3.org/1999/02/22-rdf-syntax-ns#"
   xmlns:svg="http://www.w3.org/2000/svg"
   xmlns="http://www.w3.org/2000/svg"
   xmlns:sodipodi="http://sodipodi.sourceforge.net/DTD/sodipodi-0.dtd"
   xmlns:inkscape="http://www.inkscape.org/namespaces/inkscape"
   width="210mm"
   height="297mm"
   viewBox="0 0 744.09448819 1052.3622047"
   id="svg2"
   version="1.1"
   inkscape:version="0.91 r13725"
   sodipodi:docname="drawing.svg">
  <defs
     id="defs4">
    <clipPath
       clipPathUnits="userSpaceOnUse"
       id="clipPath4151">
      <rect
         style="opacity:1;fill:#808080;fill-opacity:1;stroke:none;stroke-width:0.03543307;stroke-miterlimit:10;stroke-dasharray:none;stroke-dashoffset:0;stroke-opacity:1"
         id="rect4153"
         width="348.57144"
         height="514.28571"
         x="597.14288"
         y="-7.6377954" />
    </clipPath>
    <clipPath
       clipPathUnits="userSpaceOnUse"
       id="clipPath4203">
      <rect
         style="opacity:1;fill:#808080;fill-opacity:1;stroke:none;stroke-width:0.03543307;stroke-miterlimit:10;stroke-dasharray:none;stroke-dashoffset:0;stroke-opacity:1"
         id="rect4205"
         width="90"
         height="147.14285"
         x="14.285714"
         y="953.79077" />
    </clipPath>
  </defs>
  <sodipodi:namedview
     id="base"
     pagecolor="#ffffff"
     bordercolor="#666666"
     borderopacity="1.0"
     inkscape:pageopacity="0.0"
     inkscape:pageshadow="2"
     inkscape:zoom="0.49497475"
     inkscape:cx="466.7685"
     inkscape:cy="69.111117"
     inkscape:document-units="px"
     inkscape:current-layer="layer1"
     showgrid="false"
     inkscape:window-width="732"
     inkscape:window-height="405"
     inkscape:window-x="897"
     inkscape:window-y="141"
     inkscape:window-maximized="0" />
  <metadata
     id="metadata7">
    <rdf:RDF>
      <cc:Work
         rdf:about="">
        <dc:format>image/svg+xml</dc:format>
        <dc:type
           rdf:resource="http://purl.org/dc/dcmitype/StillImage" />
        <dc:title></dc:title>
      </cc:Work>
    </rdf:RDF>
  </metadata>
  <g
     inkscape:label="Layer 1"
     inkscape:groupmode="layer"
     id="layer1">
    <g
       id="g4210"
       transform="matrix(-1.1145555,0,0,1.1145555,999.13386,-521.6964)"
       inkscape:export-xdpi="90"
       inkscape:export-ydpi="90">
      <path
         transform="translate(-191.87928,538.26685)"
         clip-path="url(#clipPath4151)"
         inkscape:connector-curvature="0"
         id="path4147"
         d="m 659.40922,534.99939 c -0.35718,-1.42311 -0.37037,-2.86651 -0.0293,-3.20757 0.34106,-0.34105 0.63605,0.46741 0.65554,1.79657 l 0.0354,2.41667 1.27908,-2.3048 1.27908,-2.30481 1.22292,2.68403 c 0.67261,1.47622 0.99075,2.91621 0.70697,3.19999 -0.28377,0.28378 -0.9471,-0.56188 -1.47405,-1.87923 -0.65541,-1.63848 -0.97812,-1.86095 -1.02148,-0.7042 -0.10646,2.83999 -1.96422,3.05231 -2.65417,0.30335 z m 9.16789,1.25567 c -1.43638,-4.35562 -1.4982,-4.81926 -0.56566,-4.24292 0.5437,0.33602 1.01707,1.3719 1.05194,2.30194 0.0434,1.15675 0.36607,0.93428 1.02148,-0.7042 0.52695,-1.31735 1.20864,-2.14464 1.51487,-1.83841 0.30623,0.30623 -0.11874,1.83406 -0.94437,3.39518 -1.2585,2.3796 -1.59443,2.55554 -2.07826,1.08841 z M 672,535.94604 c 0,-0.85746 0.45,-1.2809 1,-0.94098 0.55,0.33992 1,1.04148 1,1.55902 0,0.51754 -0.45,0.94098 -1,0.94098 -0.55,0 -1,-0.70156 -1,-1.55902 z m 5.66667,0.89235 c -0.36667,-0.36666 -0.65299,-1.37916 -0.63626,-2.25 0.025,-1.3003 0.22011,-1.2571 1.09166,0.24167 1.07678,1.85169 0.76461,3.22835 -0.4554,2.00833 z m 3.34864,-0.0243 c 0.008,-0.44497 0.45153,-1.48403 0.98469,-2.30903 0.8354,-1.29269 0.97149,-1.26629 0.98469,0.19098 0.008,0.93004 -0.43469,1.9691 -0.98469,2.30902 -0.55,0.33992 -0.99311,0.25398 -0.98469,-0.19098 z M 688,536.53644 c 0,-0.53273 0.675,-0.70959 1.5,-0.39301 0.825,0.31659 1.5,0.12561 1.5,-0.42439 0,-0.55 -0.675,-1.25902 -1.5,-1.57561 -0.825,-0.31658 -1.5,-1.05725 -1.5,-1.64594 0,-0.58869 0.94786,-0.18728 2.10635,0.89203 1.1585,1.0793 1.80694,2.44683 1.44099,3.03895 C 690.71932,537.76822 688,537.85099 688,536.53644 Z m 12.54774,-0.78138 c -0.53418,-1.40315 -0.41665,-1.50225 0.59301,-0.5 1.72384,1.71118 2.62941,1.56834 3.16992,-0.5 0.34415,-1.31691 0.48604,-1.19317 0.57333,0.5 0.14222,2.75859 -3.32423,3.1583 -4.33626,0.5 z m 7.24237,-1.22674 c -0.24029,-1.63721 -0.0733,-3.54971 0.37118,-4.25 0.85004,-1.33937 0.88988,-1.20347 1.16568,3.97681 0.21683,4.07275 -0.9488,4.27995 -1.53686,0.27319 z m 4.67851,1.47674 c -0.25774,-0.825 -0.65199,-2.10331 -0.8761,-2.84068 -0.22411,-0.73738 -0.006,-1.97488 0.48469,-2.75 0.75452,-1.19189 0.91229,-1.17789 1.02263,0.0907 0.0718,0.825 0.0399,2.34947 -0.0709,3.38772 -0.11074,1.03824 0.39994,2.26885 1.13484,2.73468 1.04278,0.66099 1.05482,0.85034 0.0548,0.86229 -0.70477,0.008 -1.49227,-0.65969 -1.75,-1.48469 z m 4.19805,0.83333 c -1.07222,-1.07221 -0.76728,-4.15312 0.48784,-4.92882 0.7153,-0.44208 0.88306,-0.27432 0.44098,0.44098 -0.41622,0.67346 -0.0987,1.15451 0.76216,1.15451 0.81163,0 1.70266,-0.5625 1.98007,-1.25 0.30132,-0.74674 0.53617,-0.54544 0.58333,0.5 0.0501,1.10965 -0.65288,1.75 -1.92105,1.75 -1.1,0 -2,0.50248 -2,1.11663 0,0.62456 0.88196,0.88599 2.00138,0.59326 1.10076,-0.28785 1.7492,-0.11534 1.44098,0.38337 -0.65568,1.06092 -2.81739,1.19837 -3.77569,0.24007 z M 723,534.50506 c 0,-1.65 0.37206,-3 0.82681,-3 0.45474,0 0.62867,1.35 0.3865,3 -0.24217,1.65 -0.61423,3 -0.82681,3 -0.21257,0 -0.3865,-1.35 -0.3865,-3 z m 4.50708,2.01145 c -0.35034,-0.56686 0.0511,-0.7345 0.94098,-0.39301 0.85357,0.32755 1.55194,0.14554 1.55194,-0.40446 0,-0.55 -0.675,-1.25902 -1.5,-1.57561 -0.825,-0.31658 -1.5,-1.03532 -1.5,-1.5972 0,-0.56188 0.9,-0.25099 2,0.69086 1.1,0.94185 2,2.28744 2,2.99021 0,1.50409 -2.6086,1.72008 -3.49292,0.28921 z m 5.96154,-0.51145 c -0.25774,-0.825 -0.65199,-2.10331 -0.8761,-2.84068 -0.22411,-0.73738 -0.006,-1.97488 0.48469,-2.75 0.75452,-1.19189 0.91229,-1.17789 1.02263,0.0907 0.0718,0.825 0.0399,2.34947 -0.0709,3.38772 -0.11074,1.03824 0.39994,2.26885 1.13484,2.73468 1.04278,0.66099 1.05482,0.85034 0.0548,0.86229 -0.70477,0.008 -1.49227,-0.65969 -1.75,-1.48469 z m 4.23262,0.8679 c -1.00014,-1.00013 -0.86987,-5.3679 0.16009,-5.3679 0.47373,0 0.64627,1.125 0.38342,2.5 -0.34352,1.79704 -0.042,2.5 1.07225,2.5 0.87258,0 1.74171,-1.09816 1.98839,-2.51237 0.40338,-2.31252 0.42855,-2.29331 0.31642,0.24145 -0.11726,2.65106 -2.3832,4.17619 -3.92057,2.63882 z m 6.96543,-0.0346 c -0.9745,-0.97446 -0.8154,-5.3333 0.19466,-5.3333 0.47373,0 0.65422,1.08343 0.40108,2.40763 -0.33298,1.74188 0.051,2.53935 1.38867,2.88399 1.37356,0.3539 1.44184,0.5062 0.26559,0.59238 -0.87084,0.0638 -1.88334,-0.184 -2.25,-0.55067 z m 5.59916,-3.8333 c 0.0186,-2.75 0.22401,-3.73445 0.45644,-2.18767 0.36815,2.44995 0.63129,2.64323 2.04213,1.5 1.14079,-0.92441 1.4013,-0.94894 0.88131,-0.083 -0.40601,0.67614 -0.24256,2.25114 0.36321,3.5 0.99214,2.0454 0.96099,2.09706 -0.314,0.52067 -0.77847,-0.9625 -1.6703,-1.75 -1.98184,-1.75 -0.31154,0 -0.77223,0.7875 -1.02375,1.75 -0.25153,0.9625 -0.4421,-0.5 -0.4235,-3.25 z m 9.40084,3.83333 c -0.95096,-0.95095 -0.82488,-4.11751 0.18887,-4.74405 0.47055,-0.29082 0.62977,0.65231 0.35382,2.09584 -0.43729,2.28755 -0.22593,2.55248 1.64584,2.063 1.18116,-0.30888 1.89538,-0.15357 1.58716,0.34514 -0.65568,1.06092 -2.81739,1.19837 -3.77569,0.24007 z m 5.94032,-0.91512 c -0.98395,-2.56412 -0.70107,-2.92913 0.74131,-0.95656 1.68603,2.30578 4.02774,1.08434 3.29477,-1.71856 -0.36884,-1.41044 -0.2123,-1.71232 0.51222,-0.9878 1.52019,1.52019 0.0177,5.24471 -2.11569,5.24471 -1.00409,0 -2.09877,-0.7118 -2.43261,-1.58179 z M 772,534.50506 c 0,-1.65 0.37206,-3 0.82681,-3 0.45474,0 0.62867,1.35 0.3865,3 -0.24217,1.65 -0.61423,3 -0.82681,3 -0.21257,0 -0.3865,-1.35 -0.3865,-3 z m 4,0 c 0,-1.65 0.37206,-3 0.82681,-3 0.45474,0 0.62867,1.35 0.3865,3 -0.24217,1.65 -0.61423,3 -0.82681,3 -0.21257,0 -0.3865,-1.35 -0.3865,-3 z m 3.88116,0.21858 c -0.32944,-1.98722 -0.18269,-2.92011 0.37209,-2.36533 0.50384,0.50384 0.74864,1.98048 0.544,3.28141 -0.31488,2.00169 -0.45573,1.86084 -0.91609,-0.91608 z m 21.13415,2.10097 c -0.008,-0.64925 -0.90209,-1.32425 -1.98593,-1.5 -1.94164,-0.31485 -1.9398,-0.36796 0.12475,-3.61147 1.15245,-1.81056 2.30018,-3.0871 2.55052,-2.83677 0.25033,0.25034 -0.30756,1.61921 -1.23976,3.04193 -0.9322,1.42272 -1.23066,2.58676 -0.66323,2.58676 0.56742,0 1.21159,-0.53975 1.43149,-1.19944 0.26516,-0.79548 0.59885,-0.68074 0.99081,0.34069 0.32505,0.84706 0.18952,2.17431 -0.30117,2.94943 -0.56068,0.88569 -0.89785,0.97072 -0.90748,0.22887 z m 5.3601,-1.31955 c 0.20207,-1.375 0.69841,-3.2875 1.10298,-4.25 0.54339,-1.29274 0.25037,-1.77063 -1.1214,-1.82895 -1.10934,-0.0472 -1.34044,-0.28644 -0.574,-0.59433 0.70564,-0.28346 1.99382,-0.24261 2.86262,0.0908 1.24418,0.47744 1.32862,0.90862 0.39763,2.0304 -0.65011,0.78333 -1.59899,2.6905 -2.10862,4.23817 -0.81498,2.47492 -0.88235,2.51274 -0.55921,0.31393 z m 5.85378,0.82919 c -3.10245,-3.10245 -0.0808,-9.07921 3.46845,-6.86043 1.59514,0.99719 1.54367,1.05601 -0.44764,0.5116 -1.2375,-0.33832 -2.28344,-0.24731 -2.32431,0.20225 -0.0409,0.44957 -0.25959,1.80722 -0.48604,3.017 -0.47478,2.53653 1.23097,4.02977 2.8051,2.45564 0.76065,-0.76065 0.69449,-1.52353 -0.22858,-2.63576 -1.10422,-1.33051 -1.04494,-1.46776 0.39526,-0.9151 2.07057,0.79455 1.73941,4.75133 -0.43224,5.16458 -0.83645,0.15917 -2.07395,-0.26373 -2.75,-0.93978 z m 7.43748,0.50414 C 819.3,536.47173 819,534.71987 819,532.94538 c 0,-3.34217 2.45201,-5.38831 4.27388,-3.56644 0.58594,0.58594 0.28129,0.8805 -0.80958,0.78279 -0.96198,-0.0862 -1.94758,0.40614 -2.19023,1.09401 -0.26595,0.7539 0.12417,1.03373 0.98216,0.70449 2.23288,-0.85684 4.29224,2.17904 2.74377,4.04483 -1.31346,1.58262 -3.21782,1.94885 -4.33333,0.83333 z M 823.5,534.49136 c 0,-2.1435 -2.90567,-1.8339 -3.32712,0.35451 -0.25736,1.3364 0.14991,1.74367 1.48631,1.48631 1.01244,-0.19498 1.84081,-1.02335 1.84081,-1.84082 z m 6.51531,2.33325 c -0.008,-0.64925 -0.90209,-1.32425 -1.98593,-1.5 -1.94164,-0.31485 -1.9398,-0.36796 0.12475,-3.61147 1.15245,-1.81056 2.33647,-3.05082 2.63115,-2.75613 0.29469,0.29468 -0.28369,1.44131 -1.28528,2.54805 -1.00159,1.10674 -1.49936,2.33397 -1.10616,2.72717 0.3932,0.3932 1.07781,0.12771 1.52137,-0.58998 0.65007,-1.05183 0.91247,-1.02862 1.35311,0.11965 0.30065,0.78349 0.14516,2.05872 -0.34553,2.83384 -0.56068,0.88569 -0.89785,0.97072 -0.90748,0.22887 z m 4.68593,0.0484 c -1.38843,-1.38842 -0.72951,-7.14307 0.889,-7.76416 1.88609,-0.72375 3.4158,0.0447 3.39445,1.70528 -0.0101,0.78303 -0.31431,0.71893 -0.8882,-0.18714 -1.31577,-2.0774 -3.09649,-0.38832 -3.09649,2.93709 0,2.88793 2.22653,4.16454 3.34167,1.91598 0.27958,-0.56375 0.39229,-0.45125 0.25046,0.25 -0.29338,1.45064 -2.83623,2.19757 -3.89089,1.1429 z M 842,536.66823 c 0,-0.53676 0.9,-0.74058 2,-0.45292 1.11819,0.29241 2,0.0307 2,-0.59362 0,-0.61415 -0.85186,-1.11663 -1.89301,-1.11663 -2.43834,0 -3.58012,-2.95545 -1.82128,-4.71429 2.41714,-2.41713 4.85711,-0.4771 4.51707,3.59153 -0.24093,2.88276 -0.76238,3.68803 -2.55278,3.94231 -1.2375,0.17575 -2.25,-0.11962 -2.25,-0.65638 z m 4,-4.60415 c 0,-1.95514 -1.93837,-3.02065 -3.2,-1.75902 -0.56415,0.56415 -0.72339,1.51494 -0.35385,2.11287 0.98021,1.58602 3.55385,1.32977 3.55385,-0.35385 z m 3.66667,4.77431 c -1.38216,-1.38216 -0.67105,-7.11767 0.96008,-7.74359 3.21979,-1.23555 5.36689,2.65729 3.76626,6.82847 -0.61163,1.5939 -3.49021,2.15125 -4.72634,0.91512 z M 853.5,532.92173 c 0,-1.91398 -0.51096,-2.91667 -1.4863,-2.91667 -1.64445,0 -2.50638,2.77372 -1.59775,5.14157 0.94999,2.47562 3.08405,0.93605 3.08405,-2.2249 z m 4.3,3.38333 c 1.57324,-1.57324 1.54128,-5.49562 -0.05,-6.13772 -0.78853,-0.31818 -0.64271,-0.53353 0.39496,-0.58333 1.20656,-0.0579 1.74663,0.98711 2.02643,3.92105 0.32864,3.4461 0.10778,4 -1.59496,4 -1.53722,0 -1.70976,-0.26667 -0.77643,-1.2 z m -163.72971,-4.55 c 0.0535,-2.85641 0.25493,-3.27723 0.84517,-1.76597 0.71447,1.82931 0.35884,5.51597 -0.53209,5.51597 -0.21085,0 -0.35174,-1.6875 -0.31308,-3.75 z m -28.99134,1.16667 c 0.048,-1.16495 0.28494,-1.4019 0.60416,-0.60417 0.28887,0.72187 0.25335,1.58438 -0.0789,1.91667 -0.3323,0.33229 -0.56864,-0.25834 -0.52522,-1.3125 z M 679,533.00506 c 0,-0.825 0.45,-1.5 1,-1.5 0.55,0 1,0.675 1,1.5 0,0.825 -0.45,1.5 -1,1.5 -0.55,0 -1,-0.675 -1,-1.5 z m -40.6222,-48.25 c 0.4553,-1.55442 12.64539,-46.78603 40.62773,-150.75 4.88515,-18.15 9.01987,-33.70893 9.18828,-34.57541 0.1685,-0.86695 -2.41771,-4.30137 -5.75099,-7.63718 -6.37076,-6.37559 -11.53686,-15.38212 -13.35753,-23.28741 -1.55669,-6.75907 -1.2994,-19.90807 0.51009,-26.0685 2.65462,-9.03771 7.30102,-16.60528 14.10115,-22.96646 7.10836,-6.64953 13.45141,-10.24759 21.98311,-12.46982 3.14229,-0.81846 5.99869,-1.82721 6.34757,-2.24166 0.34888,-0.41446 1.41713,-3.67856 2.37389,-7.25356 12.3718,-46.22801 53.98517,-81.02025 101.24987,-84.6533 L 824,112.21 l 0,41.06619 0,41.06619 16.71502,10.20448 c 15.90507,9.71 16.86552,10.15005 19.821,9.08134 13.86295,-5.01291 26.16844,8.00703 19.71243,20.85693 -2.79341,5.55992 -7.66474,8.2297 -14.32402,7.85039 l -5.57556,-0.31758 -18.17444,17.48511 L 824,276.98816 l 0,33.25845 0,33.25845 -4.36901,0 c -12.47258,0 -34.35791,-6.05259 -47.82371,-13.2261 -9.61596,-5.12261 -23.23985,-15.31663 -29.15116,-21.81223 -4.05611,-4.45703 -4.80979,-4.88094 -7.66328,-4.31024 -1.7406,0.34812 -3.35772,1.13585 -3.59358,1.7505 -0.23587,0.61466 2.0105,10.11318 4.99192,21.10782 9.48564,34.98035 41.4674,153.88131 42.15971,156.74025 l 0.66593,2.75 -70.6758,0 c -66.83888,0 -70.64797,-0.095 -70.16322,-1.75 z M 698,446.00506 c 0,-6.875 -0.15339,-12.5 -0.34086,-12.5 -0.74473,0 -37.20979,17.20686 -37.92659,17.89651 -0.4221,0.40612 -1.17819,2.17054 -1.6802,3.92094 l -0.91274,3.18255 20.4302,0 20.43019,0 0,-12.5 z m 61.98469,11.75 c -0.0417,-2.0413 -2.8736,-3.70287 -19.98469,-11.72557 -10.175,-4.77066 -19.0625,-8.91343 -19.75,-9.20616 -0.95692,-0.40745 -1.25,2.07195 -1.25,10.57474 l 0,11.10699 20.5,0 c 11.275,0 20.49311,-0.3375 20.48469,-0.75 z m -9.17205,-33.5 c -1.66148,-6.1875 -3.3169,-11.79016 -3.67873,-12.45036 -0.46503,-0.84852 -3.94397,0.3171 -11.86913,3.97676 -6.1662,2.84741 -10.88581,5.4988 -10.48802,5.89197 0.50747,0.5016 26.68598,12.98082 28.88999,13.77179 0.0917,0.0329 -1.19264,-5.00266 -2.85411,-11.19016 z m -70.08621,0.10763 c 2.87454,-1.2967 5.23704,-2.63062 5.25,-2.96428 0.0248,-0.63768 -16.10214,-8.14541 -16.4732,-7.66894 -0.3142,0.40346 -4.50323,16.29275 -4.50323,17.08108 0,0.36811 2.3625,-0.4016 5.25,-1.71047 2.8875,-1.30887 7.60189,-3.44069 10.47643,-4.73739 z M 698,393.43767 l 0,-16.06739 -2.25,0.71291 c -1.2375,0.3921 -6.02853,2.55993 -10.64674,4.81739 -8.18199,3.9995 -8.43277,4.22814 -9.80503,8.93941 -0.77455,2.65921 -1.26574,5.26253 -1.09153,5.78517 0.22985,0.68955 21.58535,11.41806 23.5433,11.82761 0.1375,0.0288 0.25,-7.17803 0.25,-16.0151 z m 33.73259,6.93927 c 10.74464,-4.93814 11.20527,-5.27556 10.60358,-7.76714 -1.57316,-6.51438 -2.25282,-7.19211 -11.70109,-11.6678 -5.15157,-2.44032 -9.87692,-4.43694 -10.50078,-4.43694 -1.29053,0 -1.67444,28.98765 -0.3843,29.01714 0.4125,0.009 5.80467,-2.30594 11.98259,-5.14526 z m -43.79053,-35.7888 3.44207,-1.83308 -3.285,-1.69874 c -3.76285,-1.94584 -3.85024,-1.9059 -5.06018,2.31293 -1.06268,3.70536 -0.17855,3.92515 4.90311,1.21889 z m 46.5011,-1.33308 c -0.94096,-3.06117 -0.9684,-3.07445 -3.52534,-1.70602 l -2.25347,1.20602 2.41783,1.33956 c 3.43559,1.90345 4.14934,1.72516 3.36098,-0.83956 z M 724.37288,347.45827 C 726.9178,346.33253 729,344.96436 729,344.41788 c 0,-0.54648 -1.8,-7.53714 -4,-15.5348 -2.2,-7.99767 -4,-15.17949 -4,-15.95962 0,-0.78012 -0.40076,-1.4184 -0.89057,-1.4184 -0.48982,0 -0.95876,8.55 -1.04209,19 -0.0833,10.45 0.0352,19 0.26345,19 0.22824,0 2.49718,-0.92106 5.04209,-2.04679 z M 698,329.83839 c 0,-10.26666 -0.25441,-18.41225 -0.56536,-18.1013 -0.61672,0.61672 -9.42142,32.11452 -9.07416,32.46178 0.24964,0.24965 9.0211,4.25186 9.38952,4.28423 0.1375,0.0121 0.25,-8.37804 0.25,-18.64471 z m 151.8132,-94.03232 c 1.86894,-1.67037 2.25306,-2.89753 2,-6.38955 -0.31003,-4.27832 -0.40635,-4.38006 -9.50575,-10.04097 -5.05591,-3.14537 -11.24341,-6.92073 -13.75,-8.38969 L 824,208.31502 l 0,26.29182 0,26.29183 11.75,-11.51259 c 6.4625,-6.33192 12.79094,-12.44292 14.0632,-13.58001 z"
         style="fill:#000000" />
      <g
         transform="matrix(-0.97004176,0,0,0.97004176,1479.2393,23.093504)"
         id="g4207">
        <path
           style="fill:#000000"
           d="m 79.26873,1204.2284 c -1.144858,-0.4632 -3.282358,-2.2692 -4.75,-4.0134 -4.814669,-5.7219 -3.038117,-16.2239 3.298829,-19.5008 2.27368,-1.1758 6.637611,-1.517 19.403613,-1.517 l 16.470208,0 0.56094,-2.75 c 0.30852,-1.5125 4.16665,-29.075 8.57362,-61.25 4.40698,-32.175 8.24979,-59.9043 8.53959,-61.6208 0.47439,-2.8097 0.23819,-3.1785 -2.37016,-3.7001 -4.3457,-0.8692 -9.75417,-6.5136 -11.12722,-11.6127 -3.1029,-11.5233 4.73304,-22.0664 16.40041,-22.0664 6.23043,0 10.75372,2.0479 14.04004,6.3565 6.82931,8.9537 3.11069,23.1387 -7.02682,26.8045 -2.11218,0.7637 -3.43149,1.9074 -3.43149,2.9747 0,0.9536 3.82345,29.3257 8.49657,63.0491 4.67311,33.7234 8.49811,61.8777 8.5,62.5652 0.003,0.9519 4.14496,1.25 17.36857,1.25 16.09569,0 17.55922,0.1527 20.01998,2.0883 7.49522,5.8958 7.19968,17.146 -0.57494,21.8861 -3.21462,1.9599 -4.85471,2.0164 -56.81018,1.9585 -29.425,-0.033 -54.436701,-0.4386 -55.58156,-0.9017 z M 52.83476,1082.4472 C 32.725556,1059.6259 27.237223,1023.8 39.28207,993.97994 c 3.234754,-8.00845 8.140627,-15.88967 13.959874,-22.42635 l 4.891652,-5.49473 4.358348,4.27739 c 2.397091,2.35257 4.358348,4.63144 4.358348,5.06415 0,0.43272 -2.216254,3.5371 -4.925009,6.89864 -5.784665,7.1787 -11.175435,17.78526 -13.670965,26.89816 -2.737,9.9947 -2.520788,27.3749 0.45975,36.957 3.107856,9.9914 7.979598,19.4398 13.548239,26.2759 2.523392,3.0977 4.587985,6.0213 4.587985,6.4967 0,1.2576 -7.383238,8.2704 -8.707176,8.2704 -0.617568,0 -3.006328,-2.1375 -5.308356,-4.75 z m 153.10325,0.3394 -4.38354,-4.4665 4.51698,-5.024 c 10.32722,-11.4863 16.77884,-29.2118 16.77884,-46.0989 0,-16.782 -6.10918,-33.71823 -16.59319,-46.00057 l -4.52936,-5.30628 4.77368,-4.84656 c 2.62553,-2.66561 4.89769,-4.84656 5.04924,-4.84656 0.15156,0 2.98458,3.40901 6.2956,7.57559 24.35031,30.64228 24.65429,74.82458 0.72879,105.92438 -2.96185,3.85 -6.03055,7.1251 -6.81934,7.278 -0.78878,0.1529 -3.40675,-1.732 -5.8177,-4.1886 z M 68.38468,1067.9664 c -4.851162,-5.6675 -8.161461,-11.7404 -11.321239,-20.7692 -2.29301,-6.5521 -2.624747,-9.0798 -2.624747,-20 0,-11.0493 0.318656,-13.4156 2.745778,-20.3901 3.263767,-9.37864 6.293659,-14.76943 11.847184,-21.07857 l 4.106485,-4.66521 4.356075,4.27516 c 2.395842,2.35134 4.356076,4.62758 4.356076,5.05831 0,0.43072 -1.644011,2.92453 -3.653357,5.54179 -5.221865,6.80172 -9.090355,15.67042 -10.363436,23.75862 -2.284033,14.5112 1.835242,27.6822 13.495219,43.1499 0.707468,0.9385 -0.1103,2.4129 -2.952947,5.324 -2.162256,2.2144 -4.479983,4.0261 -5.150504,4.0261 -0.67052,0 -2.848785,-1.9039 -4.840587,-4.2308 z m 122.51343,-0.2204 -4.36859,-4.4513 3.62535,-4.0128 c 15.3913,-17.0364 15.53247,-44.9324 0.32428,-64.07997 l -3.57045,-4.49531 4.7208,-4.81943 4.72079,-4.81943 3.75764,4.31473 c 5.10894,5.86637 11.38063,18.17891 13.20747,25.92881 1.91919,8.1416 1.93349,23.57 0.0293,31.6462 -0.8118,3.4431 -2.87968,9.0681 -4.59529,12.5 -3.61408,7.2296 -10.60908,16.7397 -12.31252,16.7397 -0.6436,0 -3.13605,-2.003 -5.53878,-4.4512 z M 85.696542,1054.4472 c -12.665282,-13.7778 -13.09027,-39.818 -0.871801,-53.4176 l 3.892393,-4.33237 4.771178,4.71777 4.77118,4.7178 -2.15575,2.2947 c -2.90999,3.0975 -6.1328,10.6104 -6.875268,16.0272 -0.788273,5.7511 1.609263,14.0447 5.687648,19.6747 l 3.11822,4.3046 -4.30023,4.3816 c -2.36513,2.4099 -4.572351,4.3816 -4.904937,4.3816 -0.332585,0 -1.74227,-1.2375 -3.132633,-2.75 z m 90.131418,-1.7727 c -3.25918,-3.3209 -4.17817,-4.8781 -3.45821,-5.8597 5.88453,-8.0237 7.37681,-12.0169 7.43665,-19.8997 0.0475,-6.2552 -1.55228,-11.0512 -5.67966,-17.0274 l -2.63101,-3.8096 4.74262,-4.6904 4.74261,-4.69047 2.9744,3.49997 c 9.90075,11.6503 12.16636,29.9903 5.50285,44.5453 -2.50973,5.4819 -7.27875,12.4547 -8.5184,12.4547 -0.37021,0 -2.67054,-2.0352 -5.11185,-4.5227 z"
           id="path4199"
           inkscape:connector-curvature="0"
           clip-path="url(#clipPath4203)"
           transform="translate(711.14739,-262.63966)" />
      </g>
    </g>
  </g>
</svg>
