<?xml version="1.0" encoding="UTF-8" standalone="no"?>
<!-- Created with Inkscape (http://www.inkscape.org/) -->

<svg
   xmlns:dc="http://purl.org/dc/elements/1.1/"
   xmlns:cc="http://creativecommons.org/ns#"
   xmlns:rdf="http://www.w3.org/1999/02/22-rdf-syntax-ns#"
   xmlns:svg="http://www.w3.org/2000/svg"
   xmlns="http://www.w3.org/2000/svg"
   xmlns:sodipodi="http://sodipodi.sourceforge.net/DTD/sodipodi-0.dtd"
   xmlns:inkscape="http://www.inkscape.org/namespaces/inkscape"
   width="210mm"
   height="297mm"
   viewBox="0 0 744.09448819 1052.3622047"
   id="svg2"
   version="1.1"
   inkscape:version="0.91 r13725"
   sodipodi:docname="drawing-1.svg">
  <defs
     id="defs4">
    <clipPath
       clipPathUnits="userSpaceOnUse"
       id="clipPath4155">
      <rect
         style="opacity:1;fill:#808080;fill-opacity:1;stroke:none;stroke-width:0.03543307;stroke-miterlimit:10;stroke-dasharray:none;stroke-dashoffset:0;stroke-opacity:1"
         id="rect4157"
         width="470.73108"
         height="672.7616"
         x="167.68532"
         y="151.30614" />
    </clipPath>
    <clipPath
       clipPathUnits="userSpaceOnUse"
       id="clipPath4155-2">
      <rect
         style="opacity:1;fill:#808080;fill-opacity:1;stroke:none;stroke-width:0.03543307;stroke-miterlimit:10;stroke-dasharray:none;stroke-dashoffset:0;stroke-opacity:1"
         id="rect4157-7"
         width="470.73108"
         height="672.7616"
         x="167.68532"
         y="151.30614" />
    </clipPath>
    <clipPath
       clipPathUnits="userSpaceOnUse"
       id="clipPath4186">
      <ellipse
         style="opacity:1;fill:#808080;fill-opacity:1;stroke:none;stroke-width:0.03543307;stroke-miterlimit:10;stroke-dasharray:none;stroke-dashoffset:0;stroke-opacity:1"
         id="ellipse4188"
         cx="727.85718"
         cy="245.21935"
         rx="483.57141"
         ry="332.85715" />
    </clipPath>
    <clipPath
       clipPathUnits="userSpaceOnUse"
       id="clipPath4194">
      <rect
         style="opacity:1;fill:#808080;fill-opacity:1;stroke:none;stroke-width:0.03543307;stroke-miterlimit:10;stroke-dasharray:none;stroke-dashoffset:0;stroke-opacity:1"
         id="rect4196"
         width="655.71429"
         height="632.85712"
         x="-777.24969"
         y="278.16653"
         transform="matrix(0.64278761,-0.76604444,0.76604444,0.64278761,0,0)" />
    </clipPath>
  </defs>
  <sodipodi:namedview
     id="base"
     pagecolor="#ffffff"
     bordercolor="#666666"
     borderopacity="1.0"
     inkscape:pageopacity="0.0"
     inkscape:pageshadow="2"
     inkscape:zoom="0.98994949"
     inkscape:cx="226.47949"
     inkscape:cy="464.06841"
     inkscape:document-units="px"
     inkscape:current-layer="layer1"
     showgrid="false"
     inkscape:window-width="1920"
     inkscape:window-height="1138"
     inkscape:window-x="-8"
     inkscape:window-y="-8"
     inkscape:window-maximized="1" />
  <metadata
     id="metadata7">
    <rdf:RDF>
      <cc:Work
         rdf:about="">
        <dc:format>image/svg+xml</dc:format>
        <dc:type
           rdf:resource="http://purl.org/dc/dcmitype/StillImage" />
        <dc:title></dc:title>
      </cc:Work>
    </rdf:RDF>
  </metadata>
  <g
     inkscape:label="Layer 1"
     inkscape:groupmode="layer"
     id="layer1">
    <g
       id="g4198"
       inkscape:export-xdpi="90"
       inkscape:export-ydpi="90">
      <path
         transform="matrix(0.81915205,0.57357645,-0.57357645,0.81915205,253.47221,-146.84066)"
         clip-path="url(#clipPath4186)"
         inkscape:connector-curvature="0"
         id="path4151"
         d="m 254.41394,770.6382 c -3.37468,-0.9467 -7.51238,-5.39278 -8.43324,-9.06176 -0.67535,-2.6908 0.97077,-11.18746 7.66626,-39.57035 2.37188,-10.05469 6.99802,-29.88281 10.28031,-44.0625 10.03051,-43.33246 19.8109,-85.49576 25.7698,-111.09375 5.11839,-21.9873 13.20814,-56.92208 26.34365,-113.76232 2.54361,-11.00676 4.87561,-20.41821 5.18223,-20.91433 0.30661,-0.49611 4.63057,3.02802 9.60881,7.8314 11.33891,10.94064 23.44409,21.05966 35.43247,29.61887 l 9.28923,6.63212 12.92572,56.07838 c 7.10915,30.84311 13.73228,59.24244 14.71809,63.10963 0.98579,3.86719 2.0562,8.71875 2.37868,10.78125 0.32247,2.0625 0.73234,3.9886 0.91082,4.28023 0.17849,0.29163 4.37891,18.01038 9.33426,39.375 4.95536,21.36462 12.60489,54.24321 16.99897,73.06352 5.60415,24.00321 7.8501,35.29952 7.52321,37.83898 -0.58007,4.50627 -4.44929,8.73364 -9.15302,10.00022 -4.37585,1.17829 -172.55092,1.04074 -176.77625,-0.14459 z m 151.5629,-25.47025 c 5.39106,-2.72684 5.3756,-2.90336 -3.65837,-41.77922 -4.57224,-19.67573 -8.83529,-36.40318 -9.47345,-37.1721 -2.7847,-3.35536 -5.73647,-1.73266 -22.61101,12.43008 -9.06172,7.60547 -29.30086,24.5447 -44.97588,37.64274 -28.08263,23.46582 -30.84379,25.92662 -30.84379,27.48853 0,2.12863 8.04765,2.48759 56.71875,2.52986 40.53558,0.0353 53.03412,-0.22456 54.84375,-1.13989 z M 303.82416,701.28093 c 10.55116,-8.8207 20.24713,-16.94179 21.5466,-18.04687 1.29947,-1.10507 6.15103,-5.16952 10.78125,-9.0321 38.5762,-32.18075 39.05881,-32.67082 37.1039,-37.67768 -1.02675,-2.62965 -2.06594,-3.71728 -13.27444,-13.89319 -4.82756,-4.38281 -11.32461,-10.44851 -14.43788,-13.47931 -10.14057,-9.87196 -28.72323,-25.89569 -30.03113,-25.89569 -2.01565,0 -4.09294,2.59461 -5.10017,6.37031 -0.50963,1.91039 -3.45113,14.44219 -6.53664,27.84844 -8.22576,35.73993 -14.05895,60.83673 -19.81109,85.23543 -2.85852,12.12491 -2.97079,14.60832 -0.66045,14.60832 0.67987,0 9.86889,-7.21694 20.42005,-16.03766 z m 74.29145,-99.54746 c 0.51603,-1.34479 0.1353,-3.10916 -10.15765,-47.07113 -7.56315,-32.3028 -8.72468,-35.42517 -12.52866,-33.67897 -3.02427,1.38828 -26.07898,29.00718 -26.74506,32.03982 -0.32854,1.49582 -0.20427,3.75349 0.27613,5.01705 0.4804,1.26358 5.8484,6.9267 11.92888,12.58475 6.08048,5.65804 14.45875,13.50206 18.61838,17.43116 9.71157,9.17336 16.37598,14.88744 17.36343,14.88744 0.4291,0 0.98914,-0.54456 1.24455,-1.21012 z M 340.83923,497.8005 c 9.9091,-11.81037 10.53303,-15.07392 6.20148,-32.4377 -2.73486,-10.96313 -3.36085,-12.41619 -4.7175,-10.95046 -1.30347,1.40826 -12.50797,50.97003 -11.88808,52.58544 0.75905,1.97804 1.79954,1.05823 10.4041,-9.19728 z m 173.88761,24.86369 c -32.48167,-3.99243 -53.60564,-9.2133 -78.40322,-19.37767 -56.8149,-23.28805 -104.7323,-63.20277 -139.21888,-115.96793 -8.53586,-13.06004 -10.39779,-16.28873 -17.0302,-29.53125 -19.58659,-39.10738 -28.87241,-78.20453 -28.71676,-120.90951 0.0991,-27.17685 1.2346,-32.49235 6.64908,-31.12434 2.03107,0.51317 308.44501,306.03839 310.35943,309.45926 0.46744,0.83527 0.60512,2.28989 0.30595,3.23248 -1.14336,3.60241 -4.70349,4.15796 -28.16415,4.39496 -12.375,0.12502 -23.97656,0.0458 -25.78125,-0.176 z m -96.061,-167.18779 c -7.18692,-7.2007 -12.87658,-13.26719 -12.64369,-13.48109 0.48022,-0.44106 29.92463,-21.79792 45.26914,-32.83495 5.587,-4.01865 10.2452,-7.16688 10.35154,-6.99608 3.27479,5.25984 5.37361,7.60575 7.87139,8.79809 1.9162,0.91471 2.8201,1.88455 2.40685,2.5824 -0.364,0.61466 -7.1917,10.18788 -15.17267,21.27382 -7.98098,11.08594 -16.65781,23.19341 -19.28184,26.90551 -2.62404,3.71209 -4.98756,6.77069 -5.25228,6.79687 -0.26472,0.0262 -6.36152,-5.84387 -13.54844,-13.04457 z m 55.78214,-49.01719 c -7.03456,-3.60714 -9.58811,-11.85329 -5.6637,-18.28982 4.0511,-6.64434 12.68551,-8.77891 18.8508,-4.66024 9.15262,6.11435 7.93593,19.57994 -2.13321,23.60881 -4.80133,1.92111 -6.18333,1.83875 -11.05389,-0.65875 z M -74.02318,77.598283 l 0,-34.095312 3.7857,-0.50777 c 4.6833,-0.62816 7.922,-2.68472 10.3733,-6.58692 2.6843,-4.27325 2.1111,-12.76767 -1.0929,-16.19718 -3.037,-3.25073 -6.7125,-5.08001 -10.207,-5.08001 l -2.8591,0 0,-41.718752 0,-41.71875 480.00002,0 480,0 0,41.71875 c 0,39.105812 -0.10275,41.718972 -1.64063,41.722252 -2.6414,0.006 -7.59618,3.48204 -9.67012,6.7848 -1.46475,2.33261 -1.83431,4.1994 -1.56206,7.89096 0.46715,6.33642 2.68303,9.51282 8.28825,11.88096 l 4.58456,1.93691 0,34.032682 0,34.032687 -480,0 -480.00002,0 0,-34.095307 z m 152.5781,-5.32172 3.9844,-1.12355 0,-7.95501 c 0,-7.220452 -0.1515,-7.889752 -1.6406,-7.248252 -4.6522,2.004132 -14.3902,3.381582 -20.9362,2.961452 -10.6301,-0.68226 -17.6843,-4.686002 -21.8014,-12.373862 -2.8738,-5.36628 -2.7935,-17.09565 0.1558,-22.74694 5.3223,-10.19855 20.9174,-14.9936799 35.7849,-11.00306 7.784,2.08931 7.5,2.31411 7.5,-5.9364599 l 0,-7.34270298 -3.5156,-1.17159602 c -1.9336,-0.644379 -8.7966,-1.400432 -15.2511,-1.680118 -10.1217,-0.438593 -12.7418,-0.232454 -19.053,1.49901 -9.5855,2.62972802 -13.9756,4.952981 -19.8401,10.499397 -8.9007,8.4179299 -13.0137,20.8922999 -11.0509,33.5164599 2.4898,16.012992 13.164,26.710482 30.6125,30.679202 6.7936,1.54521 28.815,1.18461 35.0513,-0.57397 z m 77.29765,0.8721 c 5.87024,-1.23469 13.82477,-4.80895 17.41041,-7.82315 1.40669,-1.18249 3.71646,-2.14944 5.13285,-2.14877 3.88393,0.002 5.40968,-1.78966 5.28684,-6.207702 -0.0592,-2.12806 0.84625,-6.51471 2.01204,-9.74811 1.89269,-5.24953 2.33072,-5.80155 4.0915,-5.15625 4.18236,1.53276 11.22606,0.80883 14.44102,-1.48421 l 3.09414,-2.20687 -0.28164,5.90083 c -0.27384,5.73742 -0.36283,5.92177 -3.21354,6.65701 -6.15277,1.58688 -6.12224,10.246242 0.0418,11.857982 2.70921,0.70839 2.8901,1.03035 2.8901,5.14395 l 0,4.38826 11.48437,-0.002 11.48437,-10e-4 0.16898,-9.14063 c 0.0929,-5.02734 0.32699,-7.136722 0.52012,-4.6875 0.47489,6.02259 2.64178,6.02177 2.45145,-9.3e-4 -0.23189,-7.337442 -0.29318,-7.733442 -1.19681,-7.733442 -0.47782,0 -1.06169,0.73828 -1.29749,1.64062 -0.23581,0.90235 -0.47769,-1.02099 -0.5375,-4.27408 -0.0777,-4.22543 0.19782,-5.72523 0.96468,-5.25128 0.76655,0.47375 0.87532,-0.11346 0.38048,-2.05406 -1.27468,-4.99887 -1.72501,-19.1237 -0.60969,-19.1237 0.56693,0 1.03078,-0.61503 1.03078,-1.36673 0,-1.94835 7.699,-6.20127 13.92427,-7.69176 8.7023,-2.08355 16.65044,0.0746 19.32541,5.24744 1.25575,2.42835 1.24932,3.09572 -0.06,6.22943 -1.4906,3.56753 -1.15846,9.08891 0.68068,11.31532 0.48952,0.5926 0.76817,5.02229 0.61923,9.84375 l -0.27084,8.7663 -5.625,-0.31785 c -4.57611,-0.25858 -5.40648,-0.0925 -4.45313,0.89062 0.64454,0.66466 1.17188,2.56551 1.17188,4.224112 0,1.65858 -0.52734,3.22841 -1.17188,3.48848 -0.64453,0.26007 -0.10604,0.50617 1.19666,0.54687 2.20738,0.069 2.34419,-0.18111 2.0109,-3.67598 -0.31963,-3.351702 -0.13755,-3.750002 1.71432,-3.750002 1.85187,0 2.03395,0.3983 1.71432,3.750002 -0.28034,2.93964 -0.0384,3.75 1.11953,3.75 1.12631,0 1.38923,-0.75304 1.10701,-3.17052 -0.20358,-1.74379 0.0921,-3.456182 0.657,-3.805342 0.71565,-0.44229 1.02714,1.940742 1.02714,7.858032 l 0,8.49283 11.25,0 11.25,0 0,-2.8125 c 0,-1.73096 0.48489,-2.8125 1.26095,-2.8125 2.32682,0 4.13043,-3.2421 4.58362,-8.23933 0.37672,-4.153832 0.20529,-4.934692 -1.05683,-4.813922 -4.7074,0.45047 -4.78774,0.32434 -4.78774,-7.51642 0,-4.18168 0.43086,-7.71096 0.98302,-8.05222 0.68068,-0.42068 0.66862,-0.98637 -0.0392,-1.83924 -0.59522,-0.71719 -0.96164,-4.69633 -0.87719,-9.52591 0.0798,-4.56182 -0.33597,-10.06944 -0.92383,-12.23917 -1.65098,-6.0934899 -6.4074,-11.5896009 -12.78175,-14.76946388 -4.83549,-2.41220102 -6.85046,-2.83285002 -15.10525,-3.15339302 -7.31452,-0.284029 -10.68732,0.01057 -14.53125,1.269227 -6.80245,2.22740102 -13.0747,5.45677 -15.22924,7.84101 -0.98226,1.08698 -2.08807,1.97633 -2.45736,1.97633 -0.36928,0 -0.95123,-2.10938 -1.29323,-4.687502 -0.342,-2.57812498 -0.9237,-4.701869 -1.29265,-4.719431 -0.36897,-0.01756 -4.66732,-0.0806 -9.5519,-0.140073 l -8.88106,-0.108141 0.28088,3.890072 c 0.25999,3.600895 -0.85337,5.141595 -2.17278,3.00674 -0.30026,-0.485834 -2.47653,-1.172845 -4.83614,-1.52669 -11.29593,-1.69393 -19.62857,6.9691449 -14.94246,15.5350249 0.76005,1.38931 4.27794,3.87085 8.63865,6.09375 6.14026,3.13003 7.40457,4.16652 7.64745,6.26942 0.38217,3.30898 -3.33192,5.94227 -7.08102,5.02043 -4.91663,-1.20889 -6.51009,-2.92869 -7.14473,-7.71123 -0.3296,-2.48387 -1.94629,-7.25831 -3.59264,-10.60987 -1.83572,-3.73709 -2.90008,-7.22339 -2.75215,-9.0147099 0.14288,-1.73023 -0.38338,-3.54556 -1.29096,-4.453129 -1.67353,-1.67353 -4.72423,-2.039169 -5.57177,-0.667801 -0.29382,0.475399 -2.95544,-0.363684 -5.91471,-1.864627 -7.84042,-3.976658 -15.25358,-5.562235 -26.0055,-5.562235 -20.58908,0 -34.64424,7.518754 -42.00484,22.4703619 -2.8204,5.72894 -2.9952,6.68803 -2.9952,16.43589 0,9.80215 0.1632,10.68336 3.0724,16.59277 5.2626,10.689902 13.8491,17.407952 26.65527,20.855022 6.01166,1.61818 22.22951,1.849 29.05435,0.41353 z m 132.93677,-9.08948 c 0,-0.49331 0.86784,-1.12385 1.92853,-1.40123 1.22679,-0.32081 1.79551,-0.10476 1.56295,0.59378 -0.44895,1.34844 -3.49148,2.05206 -3.49148,0.80745 z m -108.94077,-4.86066 c 1.10465,-1.941982 1.69314,-2.361652 1.90881,-1.36121 0.32834,1.52316 -1.4021,4.16878 -2.72672,4.16878 -0.42852,0 -0.0605,-1.26341 0.81791,-2.80757 z m 22.74936,0.99116 c -1.06347,-1.06348 -1.93359,-2.48577 -1.93359,-3.160662 0,-1.90933 2.15032,-4.2374 4.21875,-4.56748 1.45478,-0.23214 1.875,0.22606 1.875,2.04455 0,1.375 -0.48438,2.24688 -1.17188,2.10937 -0.64453,-0.1289 -1.17187,0.1875 -1.17187,0.70313 0,0.515622 0.66375,0.937502 1.47499,0.937502 0.87303,0 1.35129,0.63784 1.17187,1.56293 -0.45982,2.37099 -2.30935,2.52458 -4.46327,0.37066 z m 86.19141,-1.96657 c 0,-3.492482 0.14399,-3.705932 1.875,-2.779522 2.09764,1.12262 2.4573,3.730202 0.75,5.437502 -1.94145,1.94145 -2.625,1.24932 -2.625,-2.65798 z m -154.16483,-0.14396 c -5.3437,-1.492302 -12.08534,-8.538122 -13.4839,-14.092292 -4.79499,-19.04246 5.9036,-33.9312 23.25147,-32.35815 6.2367,0.56553 9.77405,2.19753 13.89167,6.40913 4.62371,4.72924 6.12863,9.76998 5.63295,18.86756 -0.58294,10.6992 -3.62379,16.09652 -11.30738,20.06985 -3.67305,1.899412 -13.0707,2.476232 -17.98481,1.103902 z m 71.12405,-34.627102 c -0.35828,-0.57973 -3.25908,-2.23641 -6.44619,-3.68151 -6.86255,-3.11163 -8.81163,-5.03523 -7.39281,-7.29616 1.72591,-2.7502699 5.55281,-3.5012999 9.13547,-1.79284 3.10194,1.47922 3.25965,1.46139 4.64719,-0.52526 1.33849,-1.9164299 1.43962,-1.4979299 1.48545,6.14668 0.0486,8.12233 -0.16548,9.19368 -1.42911,7.14909 z m 347.41723,29.88216 c 0.002,-20.48019 0.0312,-20.79998 1.64063,-17.59225 1.96889,3.9243 7.85588,7.47782 12.42042,7.49725 4.51476,0.0192 9.37911,-2.63029 12.01741,-6.54562 3.01496,-4.47432 2.59665,-12.81863 -0.8263,-16.48249 -6.97258,-7.46331 -18.29606,-6.63607 -23.38367,1.70829 l -1.86293,3.05545 -0.003,-16.1718799 -0.004,-16.171872 -11.71875,0 -11.71875,0 0,-11.7187501 0,-11.71875 -30,0 -30,0 0,52.500002 0,52.500002 41.71875,0 41.71875,0 0.002,-20.859382 z m -67.50145,-2.3257 0,-2.12742 26.27942,0 c 22.82108,0 26.35249,0.19038 26.83457,1.44668 0.77009,2.00681 0.12134,2.41523 -4.28187,2.69561 -2.69852,0.17183 -3.83212,-0.12742 -3.83212,-1.01163 0,-1.59815 -7.58903,-1.72914 -9.16006,-0.1581 -1.6872,1.6872 -25.53573,1.84668 -26.17719,0.17506 -0.2686,-0.69994 -1.06279,-1.27262 -1.76488,-1.27262 -0.70209,0 -1.07478,0.52734 -0.82821,1.17187 0.31201,0.81557 -0.6946,1.17736 -3.31067,1.18992 -3.28796,0.0158 -3.75899,-0.24853 -3.75899,-2.10937 z m 37.96875,1.62258 c 0.31867,-0.51563 1.16242,-0.9375 1.875,-0.9375 0.71257,0 1.55632,0.42187 1.875,0.9375 0.32992,0.53381 -0.47746,0.9375 -1.875,0.9375 -1.39754,0 -2.20492,-0.40369 -1.875,-0.9375 z m -37.9685,-11.01563 c -2.1e-4,-1.78576 0.50315,-2.10937 3.281,-2.10937 2.29166,0 3.28125,0.4241 3.28125,1.40625 0,1.01562 1.04167,1.40625 3.75,1.40625 2.82163,0 3.75,-0.37353 3.75,-1.50882 0,-1.8131 3.76201,-1.44098 10.3125,1.02006 4.65977,1.7507 10.15251,1.36379 13.45245,-0.94758 2.80523,-1.96486 14.52624,-1.91079 15.28654,0.0705 0.30533,0.79568 0.29381,1.70803 -0.0256,2.02743 -0.3194,0.31942 -12.39484,0.61763 -26.8343,0.66269 l -26.25357,0.0819 -2.6e-4,-2.10938 z m 77.46993,-6.86492 c -1.88465,-1.48246 -2.47018,-2.77708 -2.47018,-5.46158 0,-7.84419 9.19011,-10.54816 12.71081,-3.73986 1.74886,3.38191 0.94332,6.84219 -2.16135,9.28432 -3.01124,2.36864 -4.98846,2.34836 -8.07928,-0.0829 z m -77.47018,-2.46395 c 0,-1.83843 0.48267,-2.1555 3.28125,-2.1555 2.59296,0 3.28125,0.37179 3.28125,1.77243 0,1.32767 -0.82337,1.86856 -3.28125,2.1555 -2.90965,0.33968 -3.28125,0.13896 -3.28125,-1.77243 z m 14.0625,0.0259 c 0,-2.1578 0.1172,-2.18137 10.84645,-2.18137 10.62423,0 10.84032,0.042 10.54688,2.05178 -0.27746,1.90032 -0.74905,2.03315 -6.38846,1.79932 -3.34889,-0.13886 -6.58086,-0.66077 -7.18216,-1.1598 -0.67089,-0.55679 -1.3022,-0.56932 -1.63402,-0.0324 -0.29741,0.48121 -1.81153,1.06144 -3.36471,1.2894 -2.44995,0.35961 -2.82398,0.12558 -2.82398,-1.76688 z m 32.10937,1.82793 c -2.25848,-0.28026 -3.04687,-0.84789 -3.04687,-2.1937 0,-1.44998 0.66078,-1.8156 3.28125,-1.8156 2.875,0 3.28125,0.29017 3.28125,2.34375 0,1.28906 -0.10547,2.27623 -0.23438,2.19371 -0.1289,-0.0825 -1.60546,-0.32018 -3.28125,-0.52815 z m -46.17187,-11.5093 c 0,-1.51786 0.625,-1.875 3.28125,-1.875 2.65625,0 3.28125,0.35714 3.28125,1.875 0,1.51786 -0.625,1.875 -3.28125,1.875 -2.65625,0 -3.28125,-0.35714 -3.28125,-1.875 z m 14.0625,0 c 0,-1.55782 0.625,-1.875 3.69467,-1.875 2.03207,0 3.97368,0.45144 4.31468,1.0032 0.34101,0.55175 1.52607,1.36876 2.63346,1.81557 1.44389,0.58258 0.22337,0.82919 -4.31469,0.8718 -5.72293,0.0537 -6.32812,-0.11989 -6.32812,-1.81557 z m 24.375,-0.17022 -2.34375,-1.98285 4.58397,0.60778 c 2.52119,0.33429 5.57979,0.60779 6.79688,0.60779 1.34202,0 2.2129,0.55342 2.2129,1.40625 0,2.29673 -8.33986,1.82305 -11.25,-0.63897 z m -38.4375,-9.14399 c 0,-1.67296 0.69341,-1.80719 8.90625,-1.72402 7.98857,0.0809 8.90625,0.26783 8.90625,1.81421 0,1.55271 -0.88499,1.72402 -8.90625,1.72402 -8.18177,0 -8.90625,-0.14758 -8.90625,-1.81421 z m 25.3125,-0.0608 c 0,-1.77885 0.625,-1.875 12.1875,-1.875 11.5625,0 12.1875,0.0961 12.1875,1.875 0,1.77884 -0.625,1.875 -12.1875,1.875 -11.5625,0 -12.1875,-0.0962 -12.1875,-1.875 z m -25.3125,-9.3750019 c 0,-1.83114 0.625,-1.875 26.71875,-1.875 26.09375,0 26.71875,0.04386 26.71875,1.875 0,1.703772 -0.625,1.875002 -6.84375,1.875002 -3.76406,0 -7.27684,-0.43309 -7.80617,-0.962416 -1.83387,-1.833878 -9.98825,-2.157006 -13.83827,-0.54836 -4.53472,1.894726 -9.65272,1.941286 -11.48949,0.104524 -0.77344,-0.773437 -2.18973,-1.40625 -3.14732,-1.40625 -0.95759,0 -2.37388,0.632813 -3.14732,1.40625 -0.77344,0.773442 -2.70201,1.406252 -4.28571,1.406252 -2.25447,0 -2.87947,-0.40698 -2.87947,-1.875002 z m 0,-9.375 c 0,-1.814024 0.625,-1.875 19.21875,-1.875 18.59375,0 19.21875,0.06098 19.21875,1.875 0,1.814024 -0.625,1.875 -19.21875,1.875 -18.59375,0 -19.21875,-0.06097 -19.21875,-1.875 z m 243.88052,77.8953339 2.21323,-1.79217 0,-48.288552 0,-48.288555 -2.27279,-2.419278 -2.2728,-2.419279 -53.69055,0 -53.69055,0 -2.63041,2.262219 -2.6304,2.26222 -0.85364,28.7504581 c -0.51318,17.2840049 -0.51318,33.2078549 0,39.9267549 0.92792,12.14883 1.15304,11.56751 -4.34588,11.22208 -3.56019,-0.22365 -6.17192,3.05979 -5.01736,6.307782 0.76591,2.15467 1.44619,2.54974 4.39042,2.54974 1.9193,0 3.3348,0.42105 3.15171,0.9375 -0.1828,0.51562 -1.87499,0.88899 -3.76043,0.8297 -2.7965,-0.0879 -3.23239,0.12795 -2.36602,1.17188 1.44474,1.74081 5.01306,1.6138 6.54574,-0.23297 0.69046,-0.83195 1.56418,-3.46867 1.9416,-5.85937 0.64525,-4.087192 0.66528,-4.026082 0.33554,1.02323 -0.41423,6.34284 0.82685,11.55375 3.0621,12.85684 1.01425,0.59128 21.46572,0.9454 55.64049,0.96343 51.83054,0.0274 54.12712,-0.0446 56.25,-1.76366 z m -107.94302,-6.88859 c 0,-1.16503 0.88483,-2.67082 1.96629,-3.34621 1.08147,-0.67538 1.72447,-1.46979 1.4289,-1.76536 -0.29555,-0.29556 -1.18038,-0.004 -1.96628,0.6485 -1.18035,0.9796 -1.42891,0.92131 -1.42891,-0.33515 0,-0.89604 0.77045,-1.52104 1.875,-1.52104 1.24734,0 1.875,-0.62501 1.875,-1.867062 0,-1.02688 -0.84375,-2.39398 -1.875,-3.03801 -1.68998,-1.05541 -1.875,-2.18628 -1.875,-11.4603 l 0,-10.28933 4.95136,4.88985 c 4.62969,4.57219 5.25346,4.88985 9.60181,4.88985 l 4.65046,0 -7.25343,-7.25343 -7.25344,-7.25344 6.79225,-6.29542 6.79224,-6.29542 -5.12077,-0.0449 c -4.78002,-0.0419 -5.38824,0.21762 -9.14062,3.9003 l -4.01986,3.9452 1.8e-4,-12.61707 1.8e-4,-12.6170719 51.32794,0.190425 51.32795,0.190425 0.24578,34.7314519 0.24579,34.731452 -51.57391,0 -51.57391,0 0,-2.11824 z m 11.99822,-5.20351 c -0.16632,-0.86362 -1.49888,-2.14368 -2.96123,-2.844572 -1.86645,-0.89456 -2.36381,-1.56936 -1.6689,-2.26428 0.69493,-0.69492 1.42088,-0.63229 2.43593,0.21013 1.20192,0.99751 1.44598,0.94333 1.44598,-0.32099 0,-1.06504 -0.84316,-1.52104 -2.8125,-1.52104 -2.36924,0 -2.8125,0.36657 -2.8125,2.32589 0,1.699082 0.63162,2.484412 2.34375,2.914132 1.28906,0.32353 2.34375,0.93948 2.34375,1.36878 0,1.40968 -2.01659,2.06211 -3.08168,0.99701 -1.4363,-1.43629 -2.54332,-1.3067 -2.54332,0.29773 0,1.61845 3.56248,2.35526 5.91593,1.22356 0.93345,-0.44886 1.56111,-1.52271 1.39479,-2.38635 z m 3.00178,-8.615752 c 0,-1.03125 -0.38238,-1.875 -0.84973,-1.875 -0.46735,0 -0.62909,0.84375 -0.35941,1.875 0.26968,1.03125 0.65206,1.875 0.84973,1.875 0.19767,0 0.35941,-0.84375 0.35941,-1.875 z m 4.6875,0.46875 c 0,-0.55246 -0.84375,-1.00447 -1.875,-1.00447 -1.03125,0 -1.875,0.45201 -1.875,1.00447 0,0.55246 0.84375,1.00446 1.875,1.00446 1.03125,0 1.875,-0.452 1.875,-1.00446 z m -34.5,8.718752 c -2.79898,-2.79898 0.30535,-7.180672 3.77267,-5.325022 2.76359,1.47903 1.51783,6.450022 -1.61642,6.450022 -0.56719,0 -1.5375,-0.50625 -2.15625,-1.125 z m 14.8125,-4.500002 c 0,-0.51563 0.42187,-0.9375 0.9375,-0.9375 0.51562,0 0.9375,0.42187 0.9375,0.9375 0,0.51562 -0.42188,0.9375 -0.9375,0.9375 -0.51563,0 -0.9375,-0.42188 -0.9375,-0.9375 z m 64.875,-69.562502 c -3.25766,-3.257663 0.79825,-9.042124 4.99829,-7.128458 2.73759,1.247332 3.42882,3.833399 1.68867,6.317809 -1.49847,2.139372 -4.94091,2.556693 -6.68696,0.810649 z m 13.125,0 c -1.88972,-1.889714 -1.2927,-5.284392 1.21875,-6.92996 2.17113,-1.422578 2.51637,-1.422578 4.6875,0 2.52606,1.655135 2.90532,3.378923 1.37327,6.241592 -1.09991,2.055207 -5.49689,2.470995 -7.27952,0.688368 z m 12.97048,-0.688368 c -1.53205,-2.862669 -1.15279,-4.586457 1.37327,-6.241592 2.17113,-1.422578 2.51637,-1.422578 4.6875,0 2.51145,1.645568 3.10847,5.040246 1.21875,6.92996 -1.78263,1.782627 -6.17961,1.366839 -7.27952,-0.688368 z M 848.0507,71.892453 c 2.66904,-2.66904 2.59654,-1.73595 2.31617,-29.808242 l -0.20366,-20.39062 2.43807,0 c 2.39137,0 2.43806,0.1245 2.43806,6.50147 0,8.10837 1.00277,10.80686 4.8985,13.18209 3.19015,1.94503 9.58119,2.54182 10.54362,0.98455 0.30404,-0.49191 0.28313,-1.96847 -0.0459,-3.28125 -0.45666,-1.81791 -1.20094,-2.38686 -3.12282,-2.38686 -3.879,0 -4.77337,-1.61603 -4.77337,-8.625 l 0,-6.375 4.21875,0 c 4.19644,0 4.21875,-0.0174 4.21875,-3.28125 0,-3.26389 -0.0225,-3.28125 -4.21875,-3.28125 l -4.21875,0 0,-3.75 c 0,-3.7499999 0,-3.7499999 -3.75,-3.7499999 -3.75,0 -3.75,0 -3.75,3.7499999 0,3.35326 -0.24268,3.75 -2.29389,3.75 l -2.29391,0 -0.28422,-21.1781439 c -0.2814,-20.9671241 -0.30628,-21.1959841 -2.49746,-22.9687501 -2.06245,-1.668605 -4.02954,-1.790608 -28.87075,-1.790608 l -26.6575,0 -2.30113,2.301136 -2.30114,2.301137 0,47.728679 c 0,46.866272 0.0352,47.773322 1.94304,50.198872 l 1.94305,2.47018 27.16206,0 27.16208,0 2.30113,-2.30114 z m -33.64731,-5.03831 c -2.58561,-2.85706 -1.88141,-3.91055 2.61404,-3.91055 3.09839,0 4.50098,-0.47884 5.47471,-1.86904 1.57479,-2.24831 2.5472,-1.53061 2.5472,1.87999 0,5.00871 -7.23244,7.66044 -10.63595,3.8996 z m -17.75943,-0.74344 c -0.36692,-0.36691 -0.66712,-1.86242 -0.66712,-3.32337 0,-2.6246 0.0677,-2.65624 5.6844,-2.65624 l 5.6844,0 -0.29378,3.04687 c -0.28469,2.95263 -0.43988,3.05543 -5.01728,3.32337 -2.59793,0.15207 -5.02372,-0.0237 -5.39062,-0.39063 z m 34.64538,-0.0421 c -0.34375,-0.34376 -0.625,-1.82032 -0.625,-3.28127 0,-2.52214 0.21245,-2.65624 4.20803,-2.65624 5.13645,0 8.35103,2.24149 6.95514,4.84974 -0.69218,1.29334 -2.01817,1.71276 -5.41491,1.71276 -2.47404,0 -4.77951,-0.28125 -5.12326,-0.62501 z m -15.19325,-5.63968 c -1.47791,-1.4779 -1.47085,-1.65493 0.11222,-2.8125 2.23515,-1.634372 4.07646,-1.563432 4.74659,0.18287 0.54786,1.42773 -1.12078,4.20682 -2.52589,4.20682 -0.41566,0 -1.46547,-0.70974 -2.33292,-1.57719 z M 794.6595,50.899971 c -0.2307,-0.37327 -0.34507,-16.06225 -0.25417,-34.86439 l 0.16526,-34.185742 24.14062,-0.250202 c 13.27735,-0.137612 24.15537,0.07332 24.17337,0.46875 0.018,0.395424 0.12348,5.465677 0.23437,11.2672291 l 0.20164,10.548275 -4.34922,-0.577146 c -11.07761,-1.470011 -19.07186,7.1412659 -14.4584,15.5743459 0.76005,1.38931 4.27794,3.87085 8.63865,6.09375 6.14026,3.13003 7.40457,4.16652 7.64745,6.26942 0.61149,5.29455 -6.86738,6.88302 -12.29726,2.61188 -2.23856,-1.76085 -2.26419,-1.7561 -4.79943,0.89013 l -2.54886,2.66043 2.64603,1.85706 c 5.36135,3.76275 12.74665,4.84931 18.12038,2.66594 1.13705,-0.46199 1.39285,0.22246 1.3143,3.51671 -0.0536,2.24969 -0.39386,4.56979 -0.75604,5.15581 -0.74164,1.19999 -47.08274,1.48851 -47.81869,0.29773 z m 24.75484,-22.17513 0,-13.59375 -3.75,0 -3.75,0 0,13.59375 0,13.59375 3.75,0 3.75,0 0,-13.59375 z m -0.53572,-17.87947 c 2.84317,-2.8431599 0.78543,-7.9017819 -3.21428,-7.9017819 -2.23691,0 -4.6875,2.450592 -4.6875,4.687502 0,2.23691 2.45059,4.6874999 4.6875,4.6874999 0.95759,0 2.40402,-0.66295 3.21428,-1.47322 z m 18.40915,8.21553 c -6.59599,-3.2668 -7.86852,-5.28518 -4.87895,-7.73855 2.55762,-2.0988699 5.29251,-2.2663999 8.44719,-0.51741 1.86072,1.03159 2.24261,2.0192 2.34375,6.06121 0.0665,2.65585 -0.0901,4.80395 -0.34792,4.77356 -0.25781,-0.0304 -2.76164,-1.19085 -5.56407,-2.57881 z m -27.24843,-43.773562 c 0,-1.151316 1.61458,-1.40625 8.90625,-1.40625 7.29167,0 8.90625,0.254934 8.90625,1.40625 0,1.151316 -1.61458,1.40625 -8.90625,1.40625 -7.29167,0 -8.90625,-0.254934 -8.90625,-1.40625 z M -9.3356803,67.740433 c 0,-3.78971 0.3229,-4.6626 1.875,-5.06848 1.0313,-0.26968 1.875,-1.15906 1.875,-1.9764 0,-0.81734 -0.8437,-2.013 -1.875,-2.65703 -1.0312,-0.644022 -1.875,-1.753952 -1.875,-2.466492 0,-1.04528 0.2716,-1.0701 1.4063,-0.12844 1.1517,0.95584 1.4062,0.89179 1.4062,-0.35396 0,-0.83657 -0.6328,-1.52104 -1.4062,-1.52104 -1.0999,0 -1.4066,-1.27661 -1.4076,-5.85938 l 0,-5.85937 5.3919,0.31128 5.3919,0.31127 -5.3906,-5.49471 c -4.6452,-4.73499 -5.3906,-5.98535 -5.3906,-9.04328 0,-3.06402 0.6721,-4.18493 4.9219,-8.20892 l 4.92189996,-4.66035 -4.92249996,0.26735 -4.9224,0.26736 5e-4,-23.2031269 6e-4,-23.2031251 -11.7186997,0 -11.7188,0 0,24.0065521 c 0,22.5185099 -0.1017,23.9609699 -1.6406,23.2712099 -3.9734,-1.78088 -10.4118,-1.53616 -14.0985,0.53589 -12.1011,6.80121 -8.2361,24.42436 5.7012,25.99529 2.7944,0.31497 5.2268,-0.0151 7.1383,-0.96873 l 2.8996,-1.4465 0,6.8446 c 0,4.94039 -0.3912,7.1693 -1.4062,8.01169 -1.851,1.53618 -1.7854,4.174462 0.152,6.111862 1.2133,1.21332 1.295,1.72106 0.3687,2.29353 -0.8413,0.51995 -0.8858,0.923 -0.1521,1.3765 0.5707,0.3527 1.0376,2.09293 1.0376,3.86719 l 0,3.22592 11.7188,0 11.7186997,0 0,-4.57816 z m 0,-7.08526 c 0,-0.80387 0.4219,-1.46158 0.9375,-1.46158 0.5156,0 0.9375,0.39697 0.9375,0.88217 0,0.48519 -0.4219,1.1429 -0.9375,1.46158 -0.5156,0.31867 -0.9375,-0.0783 -0.9375,-0.88217 z M -33.56268,58.256093 c 0,-1.289062 0.2128,-1.816412 0.4729,-1.171882 0.2601,0.644532 0.2601,1.699222 0,2.343752 -0.2601,0.64453 -0.4729,0.11719 -0.4729,-1.17187 z m -11.0969,-22.676942 c -1.1234,-0.54315 -2.5188,-2.13723 -3.1009,-3.54242 -2.9308,-7.07571 4.342,-13.06152 10.7603,-8.85608 1.2483,0.81788 2.71,1.21486 3.2483,0.88217 0.6356,-0.39283 0.9787,1.24157 0.9787,4.66202 0,3.30612 -0.3524,5.04912 -0.9465,4.6819 -0.5206,-0.32175 -2.0541,0.28616 -3.4077,1.35093 -2.7039,2.12684 -4.4404,2.31623 -7.5322,0.82148 z m 234.67424,29.712982 c -0.43386,-1.1306 1.08755,-5.44049 3.89026,-11.020422 0.19425,-0.38672 -0.57087,-0.70312 -1.70026,-0.70312 -1.3,0 -1.88178,0.4473 -1.5856,1.2191 0.25729,0.67051 -0.0553,2.19659 -0.69469,3.391272 -1.03793,1.93938 -1.23028,1.99551 -1.79502,0.52381 -0.34789,-0.90658 -0.38359,-2.432642 -0.0793,-3.391262 0.44116,-1.38996 0.0657,-1.74292 -1.85373,-1.74292 -2.22685,0 -3.32593,1.3103 -1.70381,2.03125 0.38672,0.17187 1.42706,1.87875 2.31186,3.793052 1.38883,3.00479 1.42697,3.66232 0.27902,4.81027 -1.54839,1.54839 -0.92424,2.49043 1.65005,2.49043 1.229,0 1.64461,-0.4546 1.28127,-1.40146 z m 50.63103,0.0158 c -0.60072,-1.56547 2.21417,-9.864292 3.34587,-9.864292 0.4044,0 0.73528,-0.42188 0.73528,-0.9375 0,-0.51563 -1.10634,-0.9375 -2.45854,-0.9375 -1.86362,0 -2.22264,0.28424 -1.48369,1.17463 0.68405,0.82423 0.60127,1.8727 -0.2775,3.514702 l -1.25236,2.34006 -0.63346,-2.52391 c -0.34841,-1.388152 -0.35791,-2.969772 -0.0211,-3.514692 0.36922,-0.59746 -0.3401,-0.99079 -1.78677,-0.99079 -1.31949,0 -2.39908,0.42187 -2.39908,0.9375 0,0.51562 0.33712,0.9375 0.74917,0.9375 0.87831,0 3.00083,5.517672 3.00083,7.800942 0,0.86573 -0.44678,1.57406 -0.99283,1.57406 -0.54606,0 -0.73209,0.42187 -0.41342,0.9375 0.96082,1.55464 4.4996,1.14662 3.8876,-0.44825 z m 319.6875,0 c -0.60072,-1.56547 2.21417,-9.864292 3.34587,-9.864292 0.4044,0 0.73528,-0.42188 0.73528,-0.9375 0,-0.51563 -0.88888,-0.9375 -1.9753,-0.9375 -1.2359,0 -1.80019,0.45634 -1.50748,1.2191 0.25729,0.67051 -0.085,2.25213 -0.76076,3.514702 l -1.22855,2.29559 -0.63346,-2.52391 c -0.34841,-1.388152 -0.35791,-2.969772 -0.0211,-3.514692 0.36922,-0.59746 -0.3401,-0.99079 -1.78677,-0.99079 -1.31949,0 -2.39908,0.42187 -2.39908,0.9375 0,0.51562 0.33712,0.9375 0.74917,0.9375 0.87831,0 3.00083,5.517672 3.00083,7.800942 0,0.86573 -0.44678,1.57406 -0.99283,1.57406 -0.54606,0 -0.7321,0.42187 -0.41342,0.9375 0.96082,1.55464 4.4996,1.14662 3.8876,-0.44825 z m 319.68752,0 c -0.60075,-1.56547 2.21419,-9.864292 3.34585,-9.864292 0.40444,0 0.73528,-0.42188 0.73528,-0.9375 0,-0.51563 -1.10634,-0.9375 -2.4585,-0.9375 -1.86366,0 -2.22272,0.28424 -1.48369,1.17463 0.684,0.82423 0.60122,1.8727 -0.2775,3.514702 l -1.2524,2.34006 -0.63347,-2.52391 c -0.34838,-1.388152 -0.35794,-2.969772 -0.0216,-3.514692 0.36919,-0.59746 -0.34012,-0.99079 -1.78678,-0.99079 -1.31943,0 -2.39906,0.42187 -2.39906,0.9375 0,0.51562 0.33713,0.9375 0.74916,0.9375 0.87834,0 3.00084,5.517672 3.00084,7.800942 0,0.86573 -0.44681,1.57406 -0.99281,1.57406 -0.5461,0 -0.7321,0.42187 -0.41344,0.9375 0.96084,1.55464 4.49963,1.14662 3.88763,-0.44825 z m -574.82201,-4.2443 c 0.75125,-1.21553 -0.12929,-1.18176 -2.51787,0.0966 -1.50649,0.80625 -2.24698,0.70478 -3.42051,-0.46875 -1.37203,-1.37206 -1.16608,-1.4978 2.45312,-1.4978 3.17957,0 3.9509,-0.32945 3.9509,-1.687502 0,-2.40663 -1.85074,-3.9375 -4.76021,-3.9375 -3.18462,0 -4.83452,1.9704 -4.44816,5.312212 0.51261,4.4337 6.43737,5.91291 8.74273,2.18274 z m -5.77136,-5.116632 c 0.95246,-0.72162 2.32356,-1.08495 3.04688,-0.80738 2.38685,0.91592 1.36866,2.17958 -1.73175,2.14924 -2.81297,-0.0276 -2.91393,-0.13054 -1.31513,-1.34186 z m 14.48522,4.362432 c -0.16632,-0.86362 -1.49888,-2.14369 -2.96123,-2.844572 -1.86645,-0.89456 -2.36381,-1.56937 -1.6689,-2.26428 0.69493,-0.69492 1.42088,-0.6323 2.43593,0.21012 1.20192,0.99748 1.44598,0.9433 1.44598,-0.32102 0,-1.06504 -0.84316,-1.52104 -2.8125,-1.52104 -2.36924,0 -2.8125,0.36657 -2.8125,2.32589 0,1.699082 0.63162,2.484412 2.34375,2.914132 1.28906,0.32353 2.34375,0.93948 2.34375,1.36878 0,1.40968 -2.01659,2.06211 -3.08168,0.99701 -1.4363,-1.43629 -2.54332,-1.3067 -2.54332,0.29773 0,1.61845 3.56248,2.35526 5.91593,1.22356 0.93345,-0.44886 1.56111,-1.52271 1.39479,-2.38635 z m 289.17365,1.94965 c -1.44782,-0.50555 -1.55012,-6.062192 -0.13761,-7.474702 0.75401,-0.75401 -0.26575,-1.04433 -3.76349,-1.07142 -4.0386,-0.0313 -5.02868,0.31526 -6.25714,2.19014 -1.11764,1.705722 -1.22155,2.671702 -0.44376,4.125032 1.48875,2.78176 3.28748,3.48519 7.77043,3.03879 2.20189,-0.21925 3.47611,-0.58279 2.83157,-0.80784 z m -8.14822,-1.73822 c -0.86294,-0.86294 -1.33378,-2.1819 -1.04632,-2.93103 0.28747,-0.749122 0.52267,-1.538482 0.52267,-1.754122 0,-0.21563 1.06793,-0.39207 2.37317,-0.39207 2.6777,0 4.02425,2.315872 2.63092,4.524752 -1.35505,2.14822 -2.71678,2.31613 -4.48044,0.55247 z M -66.05438,56.849891 c 0,-5.84184 -0.095,-6.09375 -2.2969,-6.09375 -1.7865,0 -2.0469,0.25 -1.1719,1.125 1.4572,1.45717 1.4572,8.480322 0,9.937502 -0.875,0.87499 -0.6146,1.125 1.1719,1.125 2.2019,0 2.2969,-0.25192 2.2969,-6.093752 z m 5.3169,2.343752 c -0.3196,-3.351702 -0.1376,-3.750002 1.7143,-3.750002 1.8519,0 2.034,0.3983 1.7143,3.750002 -0.3321,3.48274 -0.1888,3.74898 2.0109,3.73564 1.6494,-0.01 1.9899,-0.25439 1.1216,-0.80485 -2.0008,-1.26841 -1.0085,-6.212042 1.247,-6.212042 2.221,0 3.0859,3.601092 1.3634,5.676602 -0.9339,1.12524 -0.6885,1.35465 1.4491,1.35465 1.9567,0 2.3395,-0.28168 1.5976,-1.17564 -0.5366,-0.6466 -1.1156,-2.65051 -1.2867,-4.453122 l -0.3109,-3.27749 -7.4794,-0.26062 c -5.912,-0.206 -7.2381,-0.0194 -6.3281,0.89063 1.5027,1.50268 1.4877,7.046712 -0.021,7.655352 -0.6446,0.26007 -0.1061,0.50617 1.1966,0.54687 2.2074,0.069 2.3442,-0.18111 2.0109,-3.67598 z m 24.4487,3.12911 c -1.4479,-0.58426 -1.5491,-6.126862 -0.1376,-7.538372 0.754,-0.75401 -0.2658,-1.04433 -3.7635,-1.07142 -4.0751,-0.0316 -5.0238,0.3078 -6.2983,2.25301 -1.3783,2.103452 -1.3754,2.481262 0.035,4.633922 1.3271,2.02552 2.201,2.3337 6.4359,2.26973 2.6951,-0.0407 4.3729,-0.2868 3.7284,-0.54687 z m -8.1362,-1.78983 c -1.8498,-1.84984 -1.8502,-2.70337 0,-4.551712 1.1107,-1.11064 1.9151,-1.23389 3.2813,-0.50273 2.0407,1.09214 2.3731,3.714452 0.6849,5.402662 -1.4826,1.48262 -2.1962,1.41994 -3.9643,-0.34822 z m 298.05807,-3.683032 c 0,-5.84184 -0.0949,-6.09375 -2.29688,-6.09375 -1.78646,0 -2.04687,0.25 -1.17187,1.125 1.45717,1.45717 1.45717,8.480322 0,9.937502 -0.875,0.87499 -0.61459,1.125 1.17187,1.125 2.20193,0 2.29688,-0.25192 2.29688,-6.093752 z m 319.6875,0 c 0,-5.84184 -0.0949,-6.09375 -2.29688,-6.09375 -1.78646,0 -2.04687,0.25 -1.17187,1.125 0.61875,0.61875 1.125,2.85469 1.125,4.96875 0,2.114062 -0.50625,4.350002 -1.125,4.968752 -0.875,0.87499 -0.61459,1.125 1.17187,1.125 2.20193,0 2.29688,-0.25192 2.29688,-6.093752 z m 5.31693,2.343752 c -0.31963,-3.351702 -0.13755,-3.750002 1.71432,-3.750002 1.85187,0 2.03395,0.3983 1.71432,3.750002 -0.33214,3.48274 -0.18881,3.74898 2.0109,3.73564 1.64935,-0.01 1.9899,-0.25439 1.12158,-0.80485 -2.00081,-1.26841 -1.00848,-6.212042 1.24695,-6.212042 2.22102,0 3.08595,3.601092 1.36342,5.676602 -0.93387,1.12524 -0.68847,1.35465 1.44908,1.35465 1.95677,0 2.33956,-0.28168 1.59764,-1.17564 -0.53663,-0.6466 -1.11563,-2.65051 -1.28667,-4.453122 l -0.31097,-3.27749 -7.47937,-0.26062 c -5.91201,-0.206 -7.23811,-0.0194 -6.32812,0.89063 1.50268,1.50268 1.48774,7.046712 -0.0206,7.655352 -0.64453,0.26007 -0.10604,0.50617 1.19666,0.54687 2.20738,0.069 2.34419,-0.18111 2.0109,-3.67598 z m 282.96432,2.34375 c 0.94438,-1.13791 0.91262,-1.40625 -0.16646,-1.40625 -0.73345,0 -1.81143,0.47789 -2.39552,1.06198 -1.18838,1.18837 -4.00052,0.46254 -4.00052,-1.03256 0,-0.53181 1.6875,-0.96692 3.75,-0.96692 4.08637,0 4.91588,-1.51268 2.27678,-4.151792 -2.23199,-2.23199 -5.75353,-1.82428 -7.51924,0.87054 -1.42257,2.171132 -1.42257,2.516372 0,4.687502 1.76428,2.69263 6.17252,3.20569 8.05496,0.9375 z m -6.5625,-5.055952 c 0,-1.54099 2.61122,-1.86095 4.362,-0.53448 1.5988,1.21132 1.49784,1.31433 -1.31513,1.34187 -1.67578,0.0164 -3.04687,-0.34694 -3.04687,-0.80739 z m 11.57803,2.008142 c -0.23287,-7.370632 -0.29231,-7.733442 -1.26553,-7.733442 -0.51563,0 -0.9375,0.63281 -0.9375,1.40625 0,0.77344 -0.50625,1.40625 -1.125,1.40625 -0.875,0 -0.875,0.25 0,1.125 0.61875,0.61875 1.125,2.72812 1.125,4.687502 0,2.22549 0.43978,3.56215 1.17187,3.56157 0.79266,-6.3e-4 1.12632,-1.44174 1.03116,-4.45313 z m 5.625,0 c -0.23287,-7.370632 -0.29231,-7.733442 -1.26553,-7.733442 -0.51563,0 -0.9375,0.63281 -0.9375,1.40625 0,0.77344 -0.50625,1.40625 -1.125,1.40625 -0.87497,0 -0.87497,0.25 0,1.125 0.61875,0.61875 1.125,2.72812 1.125,4.687502 0,2.22549 0.43978,3.56215 1.17187,3.56157 0.79266,-6.3e-4 1.12632,-1.44174 1.03116,-4.45313 z M -2.7731803,51.693591 c 0,-1.03125 -0.3824,-1.875 -0.8497,-1.875 -0.4674,0 -0.6291,0.84375 -0.3594,1.875 0.2697,1.03125 0.652,1.875 0.8497,1.875 0.1977,0 0.3594,-0.84375 0.3594,-1.875 z m 4.6875,0.46875 c 0,-0.55246 -0.8437,-1.00447 -1.87500004,-1.00447 -1.0312,0 -1.87499996,0.45201 -1.87499996,1.00447 0,0.55246 0.84379996,1.00446 1.87499996,1.00446 1.03130004,0 1.87500004,-0.452 1.87500004,-1.00446 z M 316.91434,51.693591 c 0,-1.03125 -0.38238,-1.875 -0.84973,-1.875 -0.46735,0 -0.62909,0.84375 -0.35941,1.875 0.26968,1.03125 0.65206,1.875 0.84973,1.875 0.19767,0 0.35941,-0.84375 0.35941,-1.875 z m 4.6875,0.46875 c 0,-0.55246 -0.84375,-1.00447 -1.875,-1.00447 -1.03125,0 -1.875,0.45201 -1.875,1.00447 0,0.55246 0.84375,1.00446 1.875,1.00446 1.03125,0 1.875,-0.452 1.875,-1.00446 z m -67.51868,-10.54833 c 7.51296,-3.77465 10.17953,-14.73932 5.06325,-20.81966 -6.77281,-8.04905 -18.54543,-7.49254 -23.79963,1.12504 -7.16056,11.74425 6.33196,25.92681 18.73638,19.69462 z m -10.63614,-6.86347 c -1.88465,-1.48246 -2.47018,-2.77708 -2.47018,-5.46158 0,-7.84419 9.19011,-10.54816 12.71081,-3.73986 1.74886,3.38191 0.94332,6.84219 -2.16135,9.28432 -3.01124,2.36864 -4.98846,2.34836 -8.07928,-0.0829 z m 360.60681,7.22869 c 1.65921,-0.70228 3.7512,-2.10234 4.64884,-3.11126 1.5685,-1.76292 1.52283,-1.91517 -1.17187,-3.90745 l -2.80396,-2.07306 -2.7371,2.02362 c -6.04289,4.4677 -13.54649,-2.2343 -10.23563,-9.14219 1.81073,-3.77796 5.53252,-4.84112 9.80871,-2.80195 3.34158,1.59349 3.46439,1.5838 5.62215,-0.44331 1.73952,-1.63419 1.97508,-2.35057 1.11407,-3.38803 -3.55472,-4.28317 -12.25817,-5.2748 -17.61813,-2.00734 -4.09753,2.49789 -5.35652,4.1288 -6.6,8.5497 -3.15237,11.2076 8.85447,21.0072 19.97292,16.30127 z m -303.07699,-5.02192 0,-5.36128 5.41781,5.36128 c 5.12393,5.07046 5.66933,5.36128 10.05466,5.36128 l 4.63685,0 -6.77341,-6.81893 c -3.72537,-3.7504 -6.77341,-7.20406 -6.77341,-7.67478 0,-0.47073 2.84766,-3.49934 6.32812,-6.73025 l 6.32813,-5.87438 -5.12405,-0.0446 c -4.86038,-0.0423 -5.35138,0.17933 -9.54198,4.30693 l -4.41794,4.35151 -0.66234,-3.53056 c -0.36429,-1.94181 -0.41916,-6.43124 -0.12194,-9.97651 l 0.54041,-6.4459519 -3.69545,0 -3.69546,0 0,19.2187519 0,19.21875 3.75,0 3.75,0 0,-5.36128 z m 252.1875,-46.4508899 c 0,-0.137317 -4.85156,-5.0874661 -10.78125,-11.0003321 l -10.78125,-10.750665 0,11.000332 0,11.0003331 10.78125,0 c 5.92969,0 10.78125,-0.11235 10.78125,-0.249668 z M -74.02318,29.193591 c 0,-6.76841 0.1754,-7.5 1.7983,-7.5 4.5839,0 8.1299,4.50064 7.0225,8.91299 -0.6932,2.76185 -4.5565,6.08701 -7.0722,6.08701 -1.5607,0 -1.7486,-0.80576 -1.7486,-7.5 z m 956.95314,5.64611 c -3.49471,-2.75472 -3.60768,-8.10202 -0.23803,-11.26764 1.287,-1.2091 2.57128,-1.96709 2.85394,-1.68442 0.28266,0.28267 0.38981,3.76976 0.23813,7.7491 l -0.27591,7.23515 -2.57813,-2.03219 z"
         style="fill:#000000" />
      <path
         clip-path="url(#clipPath4194)"
         inkscape:connector-curvature="0"
         id="path4151-5"
         d="m 254.41394,770.6382 c -3.37468,-0.9467 -7.51238,-5.39278 -8.43324,-9.06176 -0.67535,-2.6908 0.97077,-11.18746 7.66626,-39.57035 2.37188,-10.05469 6.99802,-29.88281 10.28031,-44.0625 10.03051,-43.33246 19.8109,-85.49576 25.7698,-111.09375 5.11839,-21.9873 13.20814,-56.92208 26.34365,-113.76232 2.54361,-11.00676 4.87561,-20.41821 5.18223,-20.91433 0.30661,-0.49611 4.63057,3.02802 9.60881,7.8314 11.33891,10.94064 23.44409,21.05966 35.43247,29.61887 l 9.28923,6.63212 12.92572,56.07838 c 7.10915,30.84311 13.73228,59.24244 14.71809,63.10963 0.98579,3.86719 2.0562,8.71875 2.37868,10.78125 0.32247,2.0625 0.73234,3.9886 0.91082,4.28023 0.17849,0.29163 4.37891,18.01038 9.33426,39.375 4.95536,21.36462 12.60489,54.24321 16.99897,73.06352 5.60415,24.00321 7.8501,35.29952 7.52321,37.83898 -0.58007,4.50627 -4.44929,8.73364 -9.15302,10.00022 -4.37585,1.17829 -172.55092,1.04074 -176.77625,-0.14459 z m 151.5629,-25.47025 c 5.39106,-2.72684 5.3756,-2.90336 -3.65837,-41.77922 -4.57224,-19.67573 -8.83529,-36.40318 -9.47345,-37.1721 -2.7847,-3.35536 -5.73647,-1.73266 -22.61101,12.43008 -9.06172,7.60547 -29.30086,24.5447 -44.97588,37.64274 -28.08263,23.46582 -30.84379,25.92662 -30.84379,27.48853 0,2.12863 8.04765,2.48759 56.71875,2.52986 40.53558,0.0353 53.03412,-0.22456 54.84375,-1.13989 z M 303.82416,701.28093 c 10.55116,-8.8207 20.24713,-16.94179 21.5466,-18.04687 1.29947,-1.10507 6.15103,-5.16952 10.78125,-9.0321 38.5762,-32.18075 39.05881,-32.67082 37.1039,-37.67768 -1.02675,-2.62965 -2.06594,-3.71728 -13.27444,-13.89319 -4.82756,-4.38281 -11.32461,-10.44851 -14.43788,-13.47931 -10.14057,-9.87196 -28.72323,-25.89569 -30.03113,-25.89569 -2.01565,0 -4.09294,2.59461 -5.10017,6.37031 -0.50963,1.91039 -3.45113,14.44219 -6.53664,27.84844 -8.22576,35.73993 -14.05895,60.83673 -19.81109,85.23543 -2.85852,12.12491 -2.97079,14.60832 -0.66045,14.60832 0.67987,0 9.86889,-7.21694 20.42005,-16.03766 z m 74.29145,-99.54746 c 0.51603,-1.34479 0.1353,-3.10916 -10.15765,-47.07113 -7.56315,-32.3028 -8.72468,-35.42517 -12.52866,-33.67897 -3.02427,1.38828 -26.07898,29.00718 -26.74506,32.03982 -0.32854,1.49582 -0.20427,3.75349 0.27613,5.01705 0.4804,1.26358 5.8484,6.9267 11.92888,12.58475 6.08048,5.65804 14.45875,13.50206 18.61838,17.43116 9.71157,9.17336 16.37598,14.88744 17.36343,14.88744 0.4291,0 0.98914,-0.54456 1.24455,-1.21012 z M 340.83923,497.8005 c 9.9091,-11.81037 10.53303,-15.07392 6.20148,-32.4377 -2.73486,-10.96313 -3.36085,-12.41619 -4.7175,-10.95046 -1.30347,1.40826 -12.50797,50.97003 -11.88808,52.58544 0.75905,1.97804 1.79954,1.05823 10.4041,-9.19728 z m 173.88761,24.86369 c -32.48167,-3.99243 -53.60564,-9.2133 -78.40322,-19.37767 -56.8149,-23.28805 -104.7323,-63.20277 -139.21888,-115.96793 -8.53586,-13.06004 -10.39779,-16.28873 -17.0302,-29.53125 -19.58659,-39.10738 -28.87241,-78.20453 -28.71676,-120.90951 0.0991,-27.17685 1.2346,-32.49235 6.64908,-31.12434 2.03107,0.51317 308.44501,306.03839 310.35943,309.45926 0.46744,0.83527 0.60512,2.28989 0.30595,3.23248 -1.14336,3.60241 -4.70349,4.15796 -28.16415,4.39496 -12.375,0.12502 -23.97656,0.0458 -25.78125,-0.176 z m -96.061,-167.18779 c -7.18692,-7.2007 -12.87658,-13.26719 -12.64369,-13.48109 0.48022,-0.44106 29.92463,-21.79792 45.26914,-32.83495 5.587,-4.01865 10.2452,-7.16688 10.35154,-6.99608 3.27479,5.25984 5.37361,7.60575 7.87139,8.79809 1.9162,0.91471 2.8201,1.88455 2.40685,2.5824 -0.364,0.61466 -7.1917,10.18788 -15.17267,21.27382 -7.98098,11.08594 -16.65781,23.19341 -19.28184,26.90551 -2.62404,3.71209 -4.98756,6.77069 -5.25228,6.79687 -0.26472,0.0262 -6.36152,-5.84387 -13.54844,-13.04457 z m 55.78214,-49.01719 c -7.03456,-3.60714 -9.58811,-11.85329 -5.6637,-18.28982 4.0511,-6.64434 12.68551,-8.77891 18.8508,-4.66024 9.15262,6.11435 7.93593,19.57994 -2.13321,23.60881 -4.80133,1.92111 -6.18333,1.83875 -11.05389,-0.65875 z M -74.02318,77.598283 l 0,-34.095312 3.7857,-0.50777 c 4.6833,-0.62816 7.922,-2.68472 10.3733,-6.58692 2.6843,-4.27325 2.1111,-12.76767 -1.0929,-16.19718 -3.037,-3.25073 -6.7125,-5.08001 -10.207,-5.08001 l -2.8591,0 0,-41.718752 0,-41.71875 480.00002,0 480,0 0,41.71875 c 0,39.105812 -0.10275,41.718972 -1.64063,41.722252 -2.6414,0.006 -7.59618,3.48204 -9.67012,6.7848 -1.46475,2.33261 -1.83431,4.1994 -1.56206,7.89096 0.46715,6.33642 2.68303,9.51282 8.28825,11.88096 l 4.58456,1.93691 0,34.032682 0,34.032687 -480,0 -480.00002,0 0,-34.095307 z m 152.5781,-5.32172 3.9844,-1.12355 0,-7.95501 c 0,-7.220452 -0.1515,-7.889752 -1.6406,-7.248252 -4.6522,2.004132 -14.3902,3.381582 -20.9362,2.961452 -10.6301,-0.68226 -17.6843,-4.686002 -21.8014,-12.373862 -2.8738,-5.36628 -2.7935,-17.09565 0.1558,-22.74694 5.3223,-10.19855 20.9174,-14.9936799 35.7849,-11.00306 7.784,2.08931 7.5,2.31411 7.5,-5.9364599 l 0,-7.34270298 -3.5156,-1.17159602 c -1.9336,-0.644379 -8.7966,-1.400432 -15.2511,-1.680118 -10.1217,-0.438593 -12.7418,-0.232454 -19.053,1.49901 -9.5855,2.62972802 -13.9756,4.952981 -19.8401,10.499397 -8.9007,8.4179299 -13.0137,20.8922999 -11.0509,33.5164599 2.4898,16.012992 13.164,26.710482 30.6125,30.679202 6.7936,1.54521 28.815,1.18461 35.0513,-0.57397 z m 77.29765,0.8721 c 5.87024,-1.23469 13.82477,-4.80895 17.41041,-7.82315 1.40669,-1.18249 3.71646,-2.14944 5.13285,-2.14877 3.88393,0.002 5.40968,-1.78966 5.28684,-6.207702 -0.0592,-2.12806 0.84625,-6.51471 2.01204,-9.74811 1.89269,-5.24953 2.33072,-5.80155 4.0915,-5.15625 4.18236,1.53276 11.22606,0.80883 14.44102,-1.48421 l 3.09414,-2.20687 -0.28164,5.90083 c -0.27384,5.73742 -0.36283,5.92177 -3.21354,6.65701 -6.15277,1.58688 -6.12224,10.246242 0.0418,11.857982 2.70921,0.70839 2.8901,1.03035 2.8901,5.14395 l 0,4.38826 11.48437,-0.002 11.48437,-10e-4 0.16898,-9.14063 c 0.0929,-5.02734 0.32699,-7.136722 0.52012,-4.6875 0.47489,6.02259 2.64178,6.02177 2.45145,-9.3e-4 -0.23189,-7.337442 -0.29318,-7.733442 -1.19681,-7.733442 -0.47782,0 -1.06169,0.73828 -1.29749,1.64062 -0.23581,0.90235 -0.47769,-1.02099 -0.5375,-4.27408 -0.0777,-4.22543 0.19782,-5.72523 0.96468,-5.25128 0.76655,0.47375 0.87532,-0.11346 0.38048,-2.05406 -1.27468,-4.99887 -1.72501,-19.1237 -0.60969,-19.1237 0.56693,0 1.03078,-0.61503 1.03078,-1.36673 0,-1.94835 7.699,-6.20127 13.92427,-7.69176 8.7023,-2.08355 16.65044,0.0746 19.32541,5.24744 1.25575,2.42835 1.24932,3.09572 -0.06,6.22943 -1.4906,3.56753 -1.15846,9.08891 0.68068,11.31532 0.48952,0.5926 0.76817,5.02229 0.61923,9.84375 l -0.27084,8.7663 -5.625,-0.31785 c -4.57611,-0.25858 -5.40648,-0.0925 -4.45313,0.89062 0.64454,0.66466 1.17188,2.56551 1.17188,4.224112 0,1.65858 -0.52734,3.22841 -1.17188,3.48848 -0.64453,0.26007 -0.10604,0.50617 1.19666,0.54687 2.20738,0.069 2.34419,-0.18111 2.0109,-3.67598 -0.31963,-3.351702 -0.13755,-3.750002 1.71432,-3.750002 1.85187,0 2.03395,0.3983 1.71432,3.750002 -0.28034,2.93964 -0.0384,3.75 1.11953,3.75 1.12631,0 1.38923,-0.75304 1.10701,-3.17052 -0.20358,-1.74379 0.0921,-3.456182 0.657,-3.805342 0.71565,-0.44229 1.02714,1.940742 1.02714,7.858032 l 0,8.49283 11.25,0 11.25,0 0,-2.8125 c 0,-1.73096 0.48489,-2.8125 1.26095,-2.8125 2.32682,0 4.13043,-3.2421 4.58362,-8.23933 0.37672,-4.153832 0.20529,-4.934692 -1.05683,-4.813922 -4.7074,0.45047 -4.78774,0.32434 -4.78774,-7.51642 0,-4.18168 0.43086,-7.71096 0.98302,-8.05222 0.68068,-0.42068 0.66862,-0.98637 -0.0392,-1.83924 -0.59522,-0.71719 -0.96164,-4.69633 -0.87719,-9.52591 0.0798,-4.56182 -0.33597,-10.06944 -0.92383,-12.23917 -1.65098,-6.0934899 -6.4074,-11.5896009 -12.78175,-14.76946388 -4.83549,-2.41220102 -6.85046,-2.83285002 -15.10525,-3.15339302 -7.31452,-0.284029 -10.68732,0.01057 -14.53125,1.269227 -6.80245,2.22740102 -13.0747,5.45677 -15.22924,7.84101 -0.98226,1.08698 -2.08807,1.97633 -2.45736,1.97633 -0.36928,0 -0.95123,-2.10938 -1.29323,-4.687502 -0.342,-2.57812498 -0.9237,-4.701869 -1.29265,-4.719431 -0.36897,-0.01756 -4.66732,-0.0806 -9.5519,-0.140073 l -8.88106,-0.108141 0.28088,3.890072 c 0.25999,3.600895 -0.85337,5.141595 -2.17278,3.00674 -0.30026,-0.485834 -2.47653,-1.172845 -4.83614,-1.52669 -11.29593,-1.69393 -19.62857,6.9691449 -14.94246,15.5350249 0.76005,1.38931 4.27794,3.87085 8.63865,6.09375 6.14026,3.13003 7.40457,4.16652 7.64745,6.26942 0.38217,3.30898 -3.33192,5.94227 -7.08102,5.02043 -4.91663,-1.20889 -6.51009,-2.92869 -7.14473,-7.71123 -0.3296,-2.48387 -1.94629,-7.25831 -3.59264,-10.60987 -1.83572,-3.73709 -2.90008,-7.22339 -2.75215,-9.0147099 0.14288,-1.73023 -0.38338,-3.54556 -1.29096,-4.453129 -1.67353,-1.67353 -4.72423,-2.039169 -5.57177,-0.667801 -0.29382,0.475399 -2.95544,-0.363684 -5.91471,-1.864627 -7.84042,-3.976658 -15.25358,-5.562235 -26.0055,-5.562235 -20.58908,0 -34.64424,7.518754 -42.00484,22.4703619 -2.8204,5.72894 -2.9952,6.68803 -2.9952,16.43589 0,9.80215 0.1632,10.68336 3.0724,16.59277 5.2626,10.689902 13.8491,17.407952 26.65527,20.855022 6.01166,1.61818 22.22951,1.849 29.05435,0.41353 z m 132.93677,-9.08948 c 0,-0.49331 0.86784,-1.12385 1.92853,-1.40123 1.22679,-0.32081 1.79551,-0.10476 1.56295,0.59378 -0.44895,1.34844 -3.49148,2.05206 -3.49148,0.80745 z m -108.94077,-4.86066 c 1.10465,-1.941982 1.69314,-2.361652 1.90881,-1.36121 0.32834,1.52316 -1.4021,4.16878 -2.72672,4.16878 -0.42852,0 -0.0605,-1.26341 0.81791,-2.80757 z m 22.74936,0.99116 c -1.06347,-1.06348 -1.93359,-2.48577 -1.93359,-3.160662 0,-1.90933 2.15032,-4.2374 4.21875,-4.56748 1.45478,-0.23214 1.875,0.22606 1.875,2.04455 0,1.375 -0.48438,2.24688 -1.17188,2.10937 -0.64453,-0.1289 -1.17187,0.1875 -1.17187,0.70313 0,0.515622 0.66375,0.937502 1.47499,0.937502 0.87303,0 1.35129,0.63784 1.17187,1.56293 -0.45982,2.37099 -2.30935,2.52458 -4.46327,0.37066 z m 86.19141,-1.96657 c 0,-3.492482 0.14399,-3.705932 1.875,-2.779522 2.09764,1.12262 2.4573,3.730202 0.75,5.437502 -1.94145,1.94145 -2.625,1.24932 -2.625,-2.65798 z m -154.16483,-0.14396 c -5.3437,-1.492302 -12.08534,-8.538122 -13.4839,-14.092292 -4.79499,-19.04246 5.9036,-33.9312 23.25147,-32.35815 6.2367,0.56553 9.77405,2.19753 13.89167,6.40913 4.62371,4.72924 6.12863,9.76998 5.63295,18.86756 -0.58294,10.6992 -3.62379,16.09652 -11.30738,20.06985 -3.67305,1.899412 -13.0707,2.476232 -17.98481,1.103902 z m 71.12405,-34.627102 c -0.35828,-0.57973 -3.25908,-2.23641 -6.44619,-3.68151 -6.86255,-3.11163 -8.81163,-5.03523 -7.39281,-7.29616 1.72591,-2.7502699 5.55281,-3.5012999 9.13547,-1.79284 3.10194,1.47922 3.25965,1.46139 4.64719,-0.52526 1.33849,-1.9164299 1.43962,-1.4979299 1.48545,6.14668 0.0486,8.12233 -0.16548,9.19368 -1.42911,7.14909 z m 347.41723,29.88216 c 0.002,-20.48019 0.0312,-20.79998 1.64063,-17.59225 1.96889,3.9243 7.85588,7.47782 12.42042,7.49725 4.51476,0.0192 9.37911,-2.63029 12.01741,-6.54562 3.01496,-4.47432 2.59665,-12.81863 -0.8263,-16.48249 -6.97258,-7.46331 -18.29606,-6.63607 -23.38367,1.70829 l -1.86293,3.05545 -0.003,-16.1718799 -0.004,-16.171872 -11.71875,0 -11.71875,0 0,-11.7187501 0,-11.71875 -30,0 -30,0 0,52.500002 0,52.500002 41.71875,0 41.71875,0 0.002,-20.859382 z m -67.50145,-2.3257 0,-2.12742 26.27942,0 c 22.82108,0 26.35249,0.19038 26.83457,1.44668 0.77009,2.00681 0.12134,2.41523 -4.28187,2.69561 -2.69852,0.17183 -3.83212,-0.12742 -3.83212,-1.01163 0,-1.59815 -7.58903,-1.72914 -9.16006,-0.1581 -1.6872,1.6872 -25.53573,1.84668 -26.17719,0.17506 -0.2686,-0.69994 -1.06279,-1.27262 -1.76488,-1.27262 -0.70209,0 -1.07478,0.52734 -0.82821,1.17187 0.31201,0.81557 -0.6946,1.17736 -3.31067,1.18992 -3.28796,0.0158 -3.75899,-0.24853 -3.75899,-2.10937 z m 37.96875,1.62258 c 0.31867,-0.51563 1.16242,-0.9375 1.875,-0.9375 0.71257,0 1.55632,0.42187 1.875,0.9375 0.32992,0.53381 -0.47746,0.9375 -1.875,0.9375 -1.39754,0 -2.20492,-0.40369 -1.875,-0.9375 z m -37.9685,-11.01563 c -2.1e-4,-1.78576 0.50315,-2.10937 3.281,-2.10937 2.29166,0 3.28125,0.4241 3.28125,1.40625 0,1.01562 1.04167,1.40625 3.75,1.40625 2.82163,0 3.75,-0.37353 3.75,-1.50882 0,-1.8131 3.76201,-1.44098 10.3125,1.02006 4.65977,1.7507 10.15251,1.36379 13.45245,-0.94758 2.80523,-1.96486 14.52624,-1.91079 15.28654,0.0705 0.30533,0.79568 0.29381,1.70803 -0.0256,2.02743 -0.3194,0.31942 -12.39484,0.61763 -26.8343,0.66269 l -26.25357,0.0819 -2.6e-4,-2.10938 z m 77.46993,-6.86492 c -1.88465,-1.48246 -2.47018,-2.77708 -2.47018,-5.46158 0,-7.84419 9.19011,-10.54816 12.71081,-3.73986 1.74886,3.38191 0.94332,6.84219 -2.16135,9.28432 -3.01124,2.36864 -4.98846,2.34836 -8.07928,-0.0829 z m -77.47018,-2.46395 c 0,-1.83843 0.48267,-2.1555 3.28125,-2.1555 2.59296,0 3.28125,0.37179 3.28125,1.77243 0,1.32767 -0.82337,1.86856 -3.28125,2.1555 -2.90965,0.33968 -3.28125,0.13896 -3.28125,-1.77243 z m 14.0625,0.0259 c 0,-2.1578 0.1172,-2.18137 10.84645,-2.18137 10.62423,0 10.84032,0.042 10.54688,2.05178 -0.27746,1.90032 -0.74905,2.03315 -6.38846,1.79932 -3.34889,-0.13886 -6.58086,-0.66077 -7.18216,-1.1598 -0.67089,-0.55679 -1.3022,-0.56932 -1.63402,-0.0324 -0.29741,0.48121 -1.81153,1.06144 -3.36471,1.2894 -2.44995,0.35961 -2.82398,0.12558 -2.82398,-1.76688 z m 32.10937,1.82793 c -2.25848,-0.28026 -3.04687,-0.84789 -3.04687,-2.1937 0,-1.44998 0.66078,-1.8156 3.28125,-1.8156 2.875,0 3.28125,0.29017 3.28125,2.34375 0,1.28906 -0.10547,2.27623 -0.23438,2.19371 -0.1289,-0.0825 -1.60546,-0.32018 -3.28125,-0.52815 z m -46.17187,-11.5093 c 0,-1.51786 0.625,-1.875 3.28125,-1.875 2.65625,0 3.28125,0.35714 3.28125,1.875 0,1.51786 -0.625,1.875 -3.28125,1.875 -2.65625,0 -3.28125,-0.35714 -3.28125,-1.875 z m 14.0625,0 c 0,-1.55782 0.625,-1.875 3.69467,-1.875 2.03207,0 3.97368,0.45144 4.31468,1.0032 0.34101,0.55175 1.52607,1.36876 2.63346,1.81557 1.44389,0.58258 0.22337,0.82919 -4.31469,0.8718 -5.72293,0.0537 -6.32812,-0.11989 -6.32812,-1.81557 z m 24.375,-0.17022 -2.34375,-1.98285 4.58397,0.60778 c 2.52119,0.33429 5.57979,0.60779 6.79688,0.60779 1.34202,0 2.2129,0.55342 2.2129,1.40625 0,2.29673 -8.33986,1.82305 -11.25,-0.63897 z m -38.4375,-9.14399 c 0,-1.67296 0.69341,-1.80719 8.90625,-1.72402 7.98857,0.0809 8.90625,0.26783 8.90625,1.81421 0,1.55271 -0.88499,1.72402 -8.90625,1.72402 -8.18177,0 -8.90625,-0.14758 -8.90625,-1.81421 z m 25.3125,-0.0608 c 0,-1.77885 0.625,-1.875 12.1875,-1.875 11.5625,0 12.1875,0.0961 12.1875,1.875 0,1.77884 -0.625,1.875 -12.1875,1.875 -11.5625,0 -12.1875,-0.0962 -12.1875,-1.875 z m -25.3125,-9.3750019 c 0,-1.83114 0.625,-1.875 26.71875,-1.875 26.09375,0 26.71875,0.04386 26.71875,1.875 0,1.703772 -0.625,1.875002 -6.84375,1.875002 -3.76406,0 -7.27684,-0.43309 -7.80617,-0.962416 -1.83387,-1.833878 -9.98825,-2.157006 -13.83827,-0.54836 -4.53472,1.894726 -9.65272,1.941286 -11.48949,0.104524 -0.77344,-0.773437 -2.18973,-1.40625 -3.14732,-1.40625 -0.95759,0 -2.37388,0.632813 -3.14732,1.40625 -0.77344,0.773442 -2.70201,1.406252 -4.28571,1.406252 -2.25447,0 -2.87947,-0.40698 -2.87947,-1.875002 z m 0,-9.375 c 0,-1.814024 0.625,-1.875 19.21875,-1.875 18.59375,0 19.21875,0.06098 19.21875,1.875 0,1.814024 -0.625,1.875 -19.21875,1.875 -18.59375,0 -19.21875,-0.06097 -19.21875,-1.875 z m 243.88052,77.8953339 2.21323,-1.79217 0,-48.288552 0,-48.288555 -2.27279,-2.419278 -2.2728,-2.419279 -53.69055,0 -53.69055,0 -2.63041,2.262219 -2.6304,2.26222 -0.85364,28.7504581 c -0.51318,17.2840049 -0.51318,33.2078549 0,39.9267549 0.92792,12.14883 1.15304,11.56751 -4.34588,11.22208 -3.56019,-0.22365 -6.17192,3.05979 -5.01736,6.307782 0.76591,2.15467 1.44619,2.54974 4.39042,2.54974 1.9193,0 3.3348,0.42105 3.15171,0.9375 -0.1828,0.51562 -1.87499,0.88899 -3.76043,0.8297 -2.7965,-0.0879 -3.23239,0.12795 -2.36602,1.17188 1.44474,1.74081 5.01306,1.6138 6.54574,-0.23297 0.69046,-0.83195 1.56418,-3.46867 1.9416,-5.85937 0.64525,-4.087192 0.66528,-4.026082 0.33554,1.02323 -0.41423,6.34284 0.82685,11.55375 3.0621,12.85684 1.01425,0.59128 21.46572,0.9454 55.64049,0.96343 51.83054,0.0274 54.12712,-0.0446 56.25,-1.76366 z m -107.94302,-6.88859 c 0,-1.16503 0.88483,-2.67082 1.96629,-3.34621 1.08147,-0.67538 1.72447,-1.46979 1.4289,-1.76536 -0.29555,-0.29556 -1.18038,-0.004 -1.96628,0.6485 -1.18035,0.9796 -1.42891,0.92131 -1.42891,-0.33515 0,-0.89604 0.77045,-1.52104 1.875,-1.52104 1.24734,0 1.875,-0.62501 1.875,-1.867062 0,-1.02688 -0.84375,-2.39398 -1.875,-3.03801 -1.68998,-1.05541 -1.875,-2.18628 -1.875,-11.4603 l 0,-10.28933 4.95136,4.88985 c 4.62969,4.57219 5.25346,4.88985 9.60181,4.88985 l 4.65046,0 -7.25343,-7.25343 -7.25344,-7.25344 6.79225,-6.29542 6.79224,-6.29542 -5.12077,-0.0449 c -4.78002,-0.0419 -5.38824,0.21762 -9.14062,3.9003 l -4.01986,3.9452 1.8e-4,-12.61707 1.8e-4,-12.6170719 51.32794,0.190425 51.32795,0.190425 0.24578,34.7314519 0.24579,34.731452 -51.57391,0 -51.57391,0 0,-2.11824 z m 11.99822,-5.20351 c -0.16632,-0.86362 -1.49888,-2.14368 -2.96123,-2.844572 -1.86645,-0.89456 -2.36381,-1.56936 -1.6689,-2.26428 0.69493,-0.69492 1.42088,-0.63229 2.43593,0.21013 1.20192,0.99751 1.44598,0.94333 1.44598,-0.32099 0,-1.06504 -0.84316,-1.52104 -2.8125,-1.52104 -2.36924,0 -2.8125,0.36657 -2.8125,2.32589 0,1.699082 0.63162,2.484412 2.34375,2.914132 1.28906,0.32353 2.34375,0.93948 2.34375,1.36878 0,1.40968 -2.01659,2.06211 -3.08168,0.99701 -1.4363,-1.43629 -2.54332,-1.3067 -2.54332,0.29773 0,1.61845 3.56248,2.35526 5.91593,1.22356 0.93345,-0.44886 1.56111,-1.52271 1.39479,-2.38635 z m 3.00178,-8.615752 c 0,-1.03125 -0.38238,-1.875 -0.84973,-1.875 -0.46735,0 -0.62909,0.84375 -0.35941,1.875 0.26968,1.03125 0.65206,1.875 0.84973,1.875 0.19767,0 0.35941,-0.84375 0.35941,-1.875 z m 4.6875,0.46875 c 0,-0.55246 -0.84375,-1.00447 -1.875,-1.00447 -1.03125,0 -1.875,0.45201 -1.875,1.00447 0,0.55246 0.84375,1.00446 1.875,1.00446 1.03125,0 1.875,-0.452 1.875,-1.00446 z m -34.5,8.718752 c -2.79898,-2.79898 0.30535,-7.180672 3.77267,-5.325022 2.76359,1.47903 1.51783,6.450022 -1.61642,6.450022 -0.56719,0 -1.5375,-0.50625 -2.15625,-1.125 z m 14.8125,-4.500002 c 0,-0.51563 0.42187,-0.9375 0.9375,-0.9375 0.51562,0 0.9375,0.42187 0.9375,0.9375 0,0.51562 -0.42188,0.9375 -0.9375,0.9375 -0.51563,0 -0.9375,-0.42188 -0.9375,-0.9375 z m 64.875,-69.562502 c -3.25766,-3.257663 0.79825,-9.042124 4.99829,-7.128458 2.73759,1.247332 3.42882,3.833399 1.68867,6.317809 -1.49847,2.139372 -4.94091,2.556693 -6.68696,0.810649 z m 13.125,0 c -1.88972,-1.889714 -1.2927,-5.284392 1.21875,-6.92996 2.17113,-1.422578 2.51637,-1.422578 4.6875,0 2.52606,1.655135 2.90532,3.378923 1.37327,6.241592 -1.09991,2.055207 -5.49689,2.470995 -7.27952,0.688368 z m 12.97048,-0.688368 c -1.53205,-2.862669 -1.15279,-4.586457 1.37327,-6.241592 2.17113,-1.422578 2.51637,-1.422578 4.6875,0 2.51145,1.645568 3.10847,5.040246 1.21875,6.92996 -1.78263,1.782627 -6.17961,1.366839 -7.27952,-0.688368 z M 848.0507,71.892453 c 2.66904,-2.66904 2.59654,-1.73595 2.31617,-29.808242 l -0.20366,-20.39062 2.43807,0 c 2.39137,0 2.43806,0.1245 2.43806,6.50147 0,8.10837 1.00277,10.80686 4.8985,13.18209 3.19015,1.94503 9.58119,2.54182 10.54362,0.98455 0.30404,-0.49191 0.28313,-1.96847 -0.0459,-3.28125 -0.45666,-1.81791 -1.20094,-2.38686 -3.12282,-2.38686 -3.879,0 -4.77337,-1.61603 -4.77337,-8.625 l 0,-6.375 4.21875,0 c 4.19644,0 4.21875,-0.0174 4.21875,-3.28125 0,-3.26389 -0.0225,-3.28125 -4.21875,-3.28125 l -4.21875,0 0,-3.75 c 0,-3.7499999 0,-3.7499999 -3.75,-3.7499999 -3.75,0 -3.75,0 -3.75,3.7499999 0,3.35326 -0.24268,3.75 -2.29389,3.75 l -2.29391,0 -0.28422,-21.1781439 c -0.2814,-20.9671241 -0.30628,-21.1959841 -2.49746,-22.9687501 -2.06245,-1.668605 -4.02954,-1.790608 -28.87075,-1.790608 l -26.6575,0 -2.30113,2.301136 -2.30114,2.301137 0,47.728679 c 0,46.866272 0.0352,47.773322 1.94304,50.198872 l 1.94305,2.47018 27.16206,0 27.16208,0 2.30113,-2.30114 z m -33.64731,-5.03831 c -2.58561,-2.85706 -1.88141,-3.91055 2.61404,-3.91055 3.09839,0 4.50098,-0.47884 5.47471,-1.86904 1.57479,-2.24831 2.5472,-1.53061 2.5472,1.87999 0,5.00871 -7.23244,7.66044 -10.63595,3.8996 z m -17.75943,-0.74344 c -0.36692,-0.36691 -0.66712,-1.86242 -0.66712,-3.32337 0,-2.6246 0.0677,-2.65624 5.6844,-2.65624 l 5.6844,0 -0.29378,3.04687 c -0.28469,2.95263 -0.43988,3.05543 -5.01728,3.32337 -2.59793,0.15207 -5.02372,-0.0237 -5.39062,-0.39063 z m 34.64538,-0.0421 c -0.34375,-0.34376 -0.625,-1.82032 -0.625,-3.28127 0,-2.52214 0.21245,-2.65624 4.20803,-2.65624 5.13645,0 8.35103,2.24149 6.95514,4.84974 -0.69218,1.29334 -2.01817,1.71276 -5.41491,1.71276 -2.47404,0 -4.77951,-0.28125 -5.12326,-0.62501 z m -15.19325,-5.63968 c -1.47791,-1.4779 -1.47085,-1.65493 0.11222,-2.8125 2.23515,-1.634372 4.07646,-1.563432 4.74659,0.18287 0.54786,1.42773 -1.12078,4.20682 -2.52589,4.20682 -0.41566,0 -1.46547,-0.70974 -2.33292,-1.57719 z M 794.6595,50.899971 c -0.2307,-0.37327 -0.34507,-16.06225 -0.25417,-34.86439 l 0.16526,-34.185742 24.14062,-0.250202 c 13.27735,-0.137612 24.15537,0.07332 24.17337,0.46875 0.018,0.395424 0.12348,5.465677 0.23437,11.2672291 l 0.20164,10.548275 -4.34922,-0.577146 c -11.07761,-1.470011 -19.07186,7.1412659 -14.4584,15.5743459 0.76005,1.38931 4.27794,3.87085 8.63865,6.09375 6.14026,3.13003 7.40457,4.16652 7.64745,6.26942 0.61149,5.29455 -6.86738,6.88302 -12.29726,2.61188 -2.23856,-1.76085 -2.26419,-1.7561 -4.79943,0.89013 l -2.54886,2.66043 2.64603,1.85706 c 5.36135,3.76275 12.74665,4.84931 18.12038,2.66594 1.13705,-0.46199 1.39285,0.22246 1.3143,3.51671 -0.0536,2.24969 -0.39386,4.56979 -0.75604,5.15581 -0.74164,1.19999 -47.08274,1.48851 -47.81869,0.29773 z m 24.75484,-22.17513 0,-13.59375 -3.75,0 -3.75,0 0,13.59375 0,13.59375 3.75,0 3.75,0 0,-13.59375 z m -0.53572,-17.87947 c 2.84317,-2.8431599 0.78543,-7.9017819 -3.21428,-7.9017819 -2.23691,0 -4.6875,2.450592 -4.6875,4.687502 0,2.23691 2.45059,4.6874999 4.6875,4.6874999 0.95759,0 2.40402,-0.66295 3.21428,-1.47322 z m 18.40915,8.21553 c -6.59599,-3.2668 -7.86852,-5.28518 -4.87895,-7.73855 2.55762,-2.0988699 5.29251,-2.2663999 8.44719,-0.51741 1.86072,1.03159 2.24261,2.0192 2.34375,6.06121 0.0665,2.65585 -0.0901,4.80395 -0.34792,4.77356 -0.25781,-0.0304 -2.76164,-1.19085 -5.56407,-2.57881 z m -27.24843,-43.773562 c 0,-1.151316 1.61458,-1.40625 8.90625,-1.40625 7.29167,0 8.90625,0.254934 8.90625,1.40625 0,1.151316 -1.61458,1.40625 -8.90625,1.40625 -7.29167,0 -8.90625,-0.254934 -8.90625,-1.40625 z M -9.3356803,67.740433 c 0,-3.78971 0.3229,-4.6626 1.875,-5.06848 1.0313,-0.26968 1.875,-1.15906 1.875,-1.9764 0,-0.81734 -0.8437,-2.013 -1.875,-2.65703 -1.0312,-0.644022 -1.875,-1.753952 -1.875,-2.466492 0,-1.04528 0.2716,-1.0701 1.4063,-0.12844 1.1517,0.95584 1.4062,0.89179 1.4062,-0.35396 0,-0.83657 -0.6328,-1.52104 -1.4062,-1.52104 -1.0999,0 -1.4066,-1.27661 -1.4076,-5.85938 l 0,-5.85937 5.3919,0.31128 5.3919,0.31127 -5.3906,-5.49471 c -4.6452,-4.73499 -5.3906,-5.98535 -5.3906,-9.04328 0,-3.06402 0.6721,-4.18493 4.9219,-8.20892 l 4.92189996,-4.66035 -4.92249996,0.26735 -4.9224,0.26736 5e-4,-23.2031269 6e-4,-23.2031251 -11.7186997,0 -11.7188,0 0,24.0065521 c 0,22.5185099 -0.1017,23.9609699 -1.6406,23.2712099 -3.9734,-1.78088 -10.4118,-1.53616 -14.0985,0.53589 -12.1011,6.80121 -8.2361,24.42436 5.7012,25.99529 2.7944,0.31497 5.2268,-0.0151 7.1383,-0.96873 l 2.8996,-1.4465 0,6.8446 c 0,4.94039 -0.3912,7.1693 -1.4062,8.01169 -1.851,1.53618 -1.7854,4.174462 0.152,6.111862 1.2133,1.21332 1.295,1.72106 0.3687,2.29353 -0.8413,0.51995 -0.8858,0.923 -0.1521,1.3765 0.5707,0.3527 1.0376,2.09293 1.0376,3.86719 l 0,3.22592 11.7188,0 11.7186997,0 0,-4.57816 z m 0,-7.08526 c 0,-0.80387 0.4219,-1.46158 0.9375,-1.46158 0.5156,0 0.9375,0.39697 0.9375,0.88217 0,0.48519 -0.4219,1.1429 -0.9375,1.46158 -0.5156,0.31867 -0.9375,-0.0783 -0.9375,-0.88217 z M -33.56268,58.256093 c 0,-1.289062 0.2128,-1.816412 0.4729,-1.171882 0.2601,0.644532 0.2601,1.699222 0,2.343752 -0.2601,0.64453 -0.4729,0.11719 -0.4729,-1.17187 z m -11.0969,-22.676942 c -1.1234,-0.54315 -2.5188,-2.13723 -3.1009,-3.54242 -2.9308,-7.07571 4.342,-13.06152 10.7603,-8.85608 1.2483,0.81788 2.71,1.21486 3.2483,0.88217 0.6356,-0.39283 0.9787,1.24157 0.9787,4.66202 0,3.30612 -0.3524,5.04912 -0.9465,4.6819 -0.5206,-0.32175 -2.0541,0.28616 -3.4077,1.35093 -2.7039,2.12684 -4.4404,2.31623 -7.5322,0.82148 z m 234.67424,29.712982 c -0.43386,-1.1306 1.08755,-5.44049 3.89026,-11.020422 0.19425,-0.38672 -0.57087,-0.70312 -1.70026,-0.70312 -1.3,0 -1.88178,0.4473 -1.5856,1.2191 0.25729,0.67051 -0.0553,2.19659 -0.69469,3.391272 -1.03793,1.93938 -1.23028,1.99551 -1.79502,0.52381 -0.34789,-0.90658 -0.38359,-2.432642 -0.0793,-3.391262 0.44116,-1.38996 0.0657,-1.74292 -1.85373,-1.74292 -2.22685,0 -3.32593,1.3103 -1.70381,2.03125 0.38672,0.17187 1.42706,1.87875 2.31186,3.793052 1.38883,3.00479 1.42697,3.66232 0.27902,4.81027 -1.54839,1.54839 -0.92424,2.49043 1.65005,2.49043 1.229,0 1.64461,-0.4546 1.28127,-1.40146 z m 50.63103,0.0158 c -0.60072,-1.56547 2.21417,-9.864292 3.34587,-9.864292 0.4044,0 0.73528,-0.42188 0.73528,-0.9375 0,-0.51563 -1.10634,-0.9375 -2.45854,-0.9375 -1.86362,0 -2.22264,0.28424 -1.48369,1.17463 0.68405,0.82423 0.60127,1.8727 -0.2775,3.514702 l -1.25236,2.34006 -0.63346,-2.52391 c -0.34841,-1.388152 -0.35791,-2.969772 -0.0211,-3.514692 0.36922,-0.59746 -0.3401,-0.99079 -1.78677,-0.99079 -1.31949,0 -2.39908,0.42187 -2.39908,0.9375 0,0.51562 0.33712,0.9375 0.74917,0.9375 0.87831,0 3.00083,5.517672 3.00083,7.800942 0,0.86573 -0.44678,1.57406 -0.99283,1.57406 -0.54606,0 -0.73209,0.42187 -0.41342,0.9375 0.96082,1.55464 4.4996,1.14662 3.8876,-0.44825 z m 319.6875,0 c -0.60072,-1.56547 2.21417,-9.864292 3.34587,-9.864292 0.4044,0 0.73528,-0.42188 0.73528,-0.9375 0,-0.51563 -0.88888,-0.9375 -1.9753,-0.9375 -1.2359,0 -1.80019,0.45634 -1.50748,1.2191 0.25729,0.67051 -0.085,2.25213 -0.76076,3.514702 l -1.22855,2.29559 -0.63346,-2.52391 c -0.34841,-1.388152 -0.35791,-2.969772 -0.0211,-3.514692 0.36922,-0.59746 -0.3401,-0.99079 -1.78677,-0.99079 -1.31949,0 -2.39908,0.42187 -2.39908,0.9375 0,0.51562 0.33712,0.9375 0.74917,0.9375 0.87831,0 3.00083,5.517672 3.00083,7.800942 0,0.86573 -0.44678,1.57406 -0.99283,1.57406 -0.54606,0 -0.7321,0.42187 -0.41342,0.9375 0.96082,1.55464 4.4996,1.14662 3.8876,-0.44825 z m 319.68752,0 c -0.60075,-1.56547 2.21419,-9.864292 3.34585,-9.864292 0.40444,0 0.73528,-0.42188 0.73528,-0.9375 0,-0.51563 -1.10634,-0.9375 -2.4585,-0.9375 -1.86366,0 -2.22272,0.28424 -1.48369,1.17463 0.684,0.82423 0.60122,1.8727 -0.2775,3.514702 l -1.2524,2.34006 -0.63347,-2.52391 c -0.34838,-1.388152 -0.35794,-2.969772 -0.0216,-3.514692 0.36919,-0.59746 -0.34012,-0.99079 -1.78678,-0.99079 -1.31943,0 -2.39906,0.42187 -2.39906,0.9375 0,0.51562 0.33713,0.9375 0.74916,0.9375 0.87834,0 3.00084,5.517672 3.00084,7.800942 0,0.86573 -0.44681,1.57406 -0.99281,1.57406 -0.5461,0 -0.7321,0.42187 -0.41344,0.9375 0.96084,1.55464 4.49963,1.14662 3.88763,-0.44825 z m -574.82201,-4.2443 c 0.75125,-1.21553 -0.12929,-1.18176 -2.51787,0.0966 -1.50649,0.80625 -2.24698,0.70478 -3.42051,-0.46875 -1.37203,-1.37206 -1.16608,-1.4978 2.45312,-1.4978 3.17957,0 3.9509,-0.32945 3.9509,-1.687502 0,-2.40663 -1.85074,-3.9375 -4.76021,-3.9375 -3.18462,0 -4.83452,1.9704 -4.44816,5.312212 0.51261,4.4337 6.43737,5.91291 8.74273,2.18274 z m -5.77136,-5.116632 c 0.95246,-0.72162 2.32356,-1.08495 3.04688,-0.80738 2.38685,0.91592 1.36866,2.17958 -1.73175,2.14924 -2.81297,-0.0276 -2.91393,-0.13054 -1.31513,-1.34186 z m 14.48522,4.362432 c -0.16632,-0.86362 -1.49888,-2.14369 -2.96123,-2.844572 -1.86645,-0.89456 -2.36381,-1.56937 -1.6689,-2.26428 0.69493,-0.69492 1.42088,-0.6323 2.43593,0.21012 1.20192,0.99748 1.44598,0.9433 1.44598,-0.32102 0,-1.06504 -0.84316,-1.52104 -2.8125,-1.52104 -2.36924,0 -2.8125,0.36657 -2.8125,2.32589 0,1.699082 0.63162,2.484412 2.34375,2.914132 1.28906,0.32353 2.34375,0.93948 2.34375,1.36878 0,1.40968 -2.01659,2.06211 -3.08168,0.99701 -1.4363,-1.43629 -2.54332,-1.3067 -2.54332,0.29773 0,1.61845 3.56248,2.35526 5.91593,1.22356 0.93345,-0.44886 1.56111,-1.52271 1.39479,-2.38635 z m 289.17365,1.94965 c -1.44782,-0.50555 -1.55012,-6.062192 -0.13761,-7.474702 0.75401,-0.75401 -0.26575,-1.04433 -3.76349,-1.07142 -4.0386,-0.0313 -5.02868,0.31526 -6.25714,2.19014 -1.11764,1.705722 -1.22155,2.671702 -0.44376,4.125032 1.48875,2.78176 3.28748,3.48519 7.77043,3.03879 2.20189,-0.21925 3.47611,-0.58279 2.83157,-0.80784 z m -8.14822,-1.73822 c -0.86294,-0.86294 -1.33378,-2.1819 -1.04632,-2.93103 0.28747,-0.749122 0.52267,-1.538482 0.52267,-1.754122 0,-0.21563 1.06793,-0.39207 2.37317,-0.39207 2.6777,0 4.02425,2.315872 2.63092,4.524752 -1.35505,2.14822 -2.71678,2.31613 -4.48044,0.55247 z M -66.05438,56.849891 c 0,-5.84184 -0.095,-6.09375 -2.2969,-6.09375 -1.7865,0 -2.0469,0.25 -1.1719,1.125 1.4572,1.45717 1.4572,8.480322 0,9.937502 -0.875,0.87499 -0.6146,1.125 1.1719,1.125 2.2019,0 2.2969,-0.25192 2.2969,-6.093752 z m 5.3169,2.343752 c -0.3196,-3.351702 -0.1376,-3.750002 1.7143,-3.750002 1.8519,0 2.034,0.3983 1.7143,3.750002 -0.3321,3.48274 -0.1888,3.74898 2.0109,3.73564 1.6494,-0.01 1.9899,-0.25439 1.1216,-0.80485 -2.0008,-1.26841 -1.0085,-6.212042 1.247,-6.212042 2.221,0 3.0859,3.601092 1.3634,5.676602 -0.9339,1.12524 -0.6885,1.35465 1.4491,1.35465 1.9567,0 2.3395,-0.28168 1.5976,-1.17564 -0.5366,-0.6466 -1.1156,-2.65051 -1.2867,-4.453122 l -0.3109,-3.27749 -7.4794,-0.26062 c -5.912,-0.206 -7.2381,-0.0194 -6.3281,0.89063 1.5027,1.50268 1.4877,7.046712 -0.021,7.655352 -0.6446,0.26007 -0.1061,0.50617 1.1966,0.54687 2.2074,0.069 2.3442,-0.18111 2.0109,-3.67598 z m 24.4487,3.12911 c -1.4479,-0.58426 -1.5491,-6.126862 -0.1376,-7.538372 0.754,-0.75401 -0.2658,-1.04433 -3.7635,-1.07142 -4.0751,-0.0316 -5.0238,0.3078 -6.2983,2.25301 -1.3783,2.103452 -1.3754,2.481262 0.035,4.633922 1.3271,2.02552 2.201,2.3337 6.4359,2.26973 2.6951,-0.0407 4.3729,-0.2868 3.7284,-0.54687 z m -8.1362,-1.78983 c -1.8498,-1.84984 -1.8502,-2.70337 0,-4.551712 1.1107,-1.11064 1.9151,-1.23389 3.2813,-0.50273 2.0407,1.09214 2.3731,3.714452 0.6849,5.402662 -1.4826,1.48262 -2.1962,1.41994 -3.9643,-0.34822 z m 298.05807,-3.683032 c 0,-5.84184 -0.0949,-6.09375 -2.29688,-6.09375 -1.78646,0 -2.04687,0.25 -1.17187,1.125 1.45717,1.45717 1.45717,8.480322 0,9.937502 -0.875,0.87499 -0.61459,1.125 1.17187,1.125 2.20193,0 2.29688,-0.25192 2.29688,-6.093752 z m 319.6875,0 c 0,-5.84184 -0.0949,-6.09375 -2.29688,-6.09375 -1.78646,0 -2.04687,0.25 -1.17187,1.125 0.61875,0.61875 1.125,2.85469 1.125,4.96875 0,2.114062 -0.50625,4.350002 -1.125,4.968752 -0.875,0.87499 -0.61459,1.125 1.17187,1.125 2.20193,0 2.29688,-0.25192 2.29688,-6.093752 z m 5.31693,2.343752 c -0.31963,-3.351702 -0.13755,-3.750002 1.71432,-3.750002 1.85187,0 2.03395,0.3983 1.71432,3.750002 -0.33214,3.48274 -0.18881,3.74898 2.0109,3.73564 1.64935,-0.01 1.9899,-0.25439 1.12158,-0.80485 -2.00081,-1.26841 -1.00848,-6.212042 1.24695,-6.212042 2.22102,0 3.08595,3.601092 1.36342,5.676602 -0.93387,1.12524 -0.68847,1.35465 1.44908,1.35465 1.95677,0 2.33956,-0.28168 1.59764,-1.17564 -0.53663,-0.6466 -1.11563,-2.65051 -1.28667,-4.453122 l -0.31097,-3.27749 -7.47937,-0.26062 c -5.91201,-0.206 -7.23811,-0.0194 -6.32812,0.89063 1.50268,1.50268 1.48774,7.046712 -0.0206,7.655352 -0.64453,0.26007 -0.10604,0.50617 1.19666,0.54687 2.20738,0.069 2.34419,-0.18111 2.0109,-3.67598 z m 282.96432,2.34375 c 0.94438,-1.13791 0.91262,-1.40625 -0.16646,-1.40625 -0.73345,0 -1.81143,0.47789 -2.39552,1.06198 -1.18838,1.18837 -4.00052,0.46254 -4.00052,-1.03256 0,-0.53181 1.6875,-0.96692 3.75,-0.96692 4.08637,0 4.91588,-1.51268 2.27678,-4.151792 -2.23199,-2.23199 -5.75353,-1.82428 -7.51924,0.87054 -1.42257,2.171132 -1.42257,2.516372 0,4.687502 1.76428,2.69263 6.17252,3.20569 8.05496,0.9375 z m -6.5625,-5.055952 c 0,-1.54099 2.61122,-1.86095 4.362,-0.53448 1.5988,1.21132 1.49784,1.31433 -1.31513,1.34187 -1.67578,0.0164 -3.04687,-0.34694 -3.04687,-0.80739 z m 11.57803,2.008142 c -0.23287,-7.370632 -0.29231,-7.733442 -1.26553,-7.733442 -0.51563,0 -0.9375,0.63281 -0.9375,1.40625 0,0.77344 -0.50625,1.40625 -1.125,1.40625 -0.875,0 -0.875,0.25 0,1.125 0.61875,0.61875 1.125,2.72812 1.125,4.687502 0,2.22549 0.43978,3.56215 1.17187,3.56157 0.79266,-6.3e-4 1.12632,-1.44174 1.03116,-4.45313 z m 5.625,0 c -0.23287,-7.370632 -0.29231,-7.733442 -1.26553,-7.733442 -0.51563,0 -0.9375,0.63281 -0.9375,1.40625 0,0.77344 -0.50625,1.40625 -1.125,1.40625 -0.87497,0 -0.87497,0.25 0,1.125 0.61875,0.61875 1.125,2.72812 1.125,4.687502 0,2.22549 0.43978,3.56215 1.17187,3.56157 0.79266,-6.3e-4 1.12632,-1.44174 1.03116,-4.45313 z M -2.7731803,51.693591 c 0,-1.03125 -0.3824,-1.875 -0.8497,-1.875 -0.4674,0 -0.6291,0.84375 -0.3594,1.875 0.2697,1.03125 0.652,1.875 0.8497,1.875 0.1977,0 0.3594,-0.84375 0.3594,-1.875 z m 4.6875,0.46875 c 0,-0.55246 -0.8437,-1.00447 -1.87500004,-1.00447 -1.0312,0 -1.87499996,0.45201 -1.87499996,1.00447 0,0.55246 0.84379996,1.00446 1.87499996,1.00446 1.03130004,0 1.87500004,-0.452 1.87500004,-1.00446 z M 316.91434,51.693591 c 0,-1.03125 -0.38238,-1.875 -0.84973,-1.875 -0.46735,0 -0.62909,0.84375 -0.35941,1.875 0.26968,1.03125 0.65206,1.875 0.84973,1.875 0.19767,0 0.35941,-0.84375 0.35941,-1.875 z m 4.6875,0.46875 c 0,-0.55246 -0.84375,-1.00447 -1.875,-1.00447 -1.03125,0 -1.875,0.45201 -1.875,1.00447 0,0.55246 0.84375,1.00446 1.875,1.00446 1.03125,0 1.875,-0.452 1.875,-1.00446 z m -67.51868,-10.54833 c 7.51296,-3.77465 10.17953,-14.73932 5.06325,-20.81966 -6.77281,-8.04905 -18.54543,-7.49254 -23.79963,1.12504 -7.16056,11.74425 6.33196,25.92681 18.73638,19.69462 z m -10.63614,-6.86347 c -1.88465,-1.48246 -2.47018,-2.77708 -2.47018,-5.46158 0,-7.84419 9.19011,-10.54816 12.71081,-3.73986 1.74886,3.38191 0.94332,6.84219 -2.16135,9.28432 -3.01124,2.36864 -4.98846,2.34836 -8.07928,-0.0829 z m 360.60681,7.22869 c 1.65921,-0.70228 3.7512,-2.10234 4.64884,-3.11126 1.5685,-1.76292 1.52283,-1.91517 -1.17187,-3.90745 l -2.80396,-2.07306 -2.7371,2.02362 c -6.04289,4.4677 -13.54649,-2.2343 -10.23563,-9.14219 1.81073,-3.77796 5.53252,-4.84112 9.80871,-2.80195 3.34158,1.59349 3.46439,1.5838 5.62215,-0.44331 1.73952,-1.63419 1.97508,-2.35057 1.11407,-3.38803 -3.55472,-4.28317 -12.25817,-5.2748 -17.61813,-2.00734 -4.09753,2.49789 -5.35652,4.1288 -6.6,8.5497 -3.15237,11.2076 8.85447,21.0072 19.97292,16.30127 z m -303.07699,-5.02192 0,-5.36128 5.41781,5.36128 c 5.12393,5.07046 5.66933,5.36128 10.05466,5.36128 l 4.63685,0 -6.77341,-6.81893 c -3.72537,-3.7504 -6.77341,-7.20406 -6.77341,-7.67478 0,-0.47073 2.84766,-3.49934 6.32812,-6.73025 l 6.32813,-5.87438 -5.12405,-0.0446 c -4.86038,-0.0423 -5.35138,0.17933 -9.54198,4.30693 l -4.41794,4.35151 -0.66234,-3.53056 c -0.36429,-1.94181 -0.41916,-6.43124 -0.12194,-9.97651 l 0.54041,-6.4459519 -3.69545,0 -3.69546,0 0,19.2187519 0,19.21875 3.75,0 3.75,0 0,-5.36128 z m 252.1875,-46.4508899 c 0,-0.137317 -4.85156,-5.0874661 -10.78125,-11.0003321 l -10.78125,-10.750665 0,11.000332 0,11.0003331 10.78125,0 c 5.92969,0 10.78125,-0.11235 10.78125,-0.249668 z M -74.02318,29.193591 c 0,-6.76841 0.1754,-7.5 1.7983,-7.5 4.5839,0 8.1299,4.50064 7.0225,8.91299 -0.6932,2.76185 -4.5565,6.08701 -7.0722,6.08701 -1.5607,0 -1.7486,-0.80576 -1.7486,-7.5 z m 956.95314,5.64611 c -3.49471,-2.75472 -3.60768,-8.10202 -0.23803,-11.26764 1.287,-1.2091 2.57128,-1.96709 2.85394,-1.68442 0.28266,0.28267 0.38981,3.76976 0.23813,7.7491 l -0.27591,7.23515 -2.57813,-2.03219 z"
         style="fill:#000000"
         transform="translate(-34.47939,-11.948015)" />
    </g>
  </g>
</svg>
